<?xml version="1.0"?>
<svg width="243" height="240" xmlns="http://www.w3.org/2000/svg" xmlns:svg="http://www.w3.org/2000/svg" enable-background="new 0 0 1200 1200" version="1.1" xml:space="preserve">
 <g class="layer">
  <title>Layer 1</title>
  <g id="svg_25">
   <g id="svg_26">
    <g id="svg_27">
     <path d="m27.34,159.93c-0.03,-0.61 -0.33,-1.09 -0.72,-1.54c-1.85,-2.17 -4.22,-3.64 -6.73,-4.87c-1.74,-0.86 -3.63,-0.72 -5.49,-0.57c-2.56,0.21 -5.09,0.15 -7.6,-0.58c-3.81,-1.12 -4.58,-2.27 -3.5,-6.05c0.28,-1 0.51,-1.68 -0.47,-2.41c-2.9,-2.18 -3.15,-5.25 -2.58,-8.5c0.2,-1.14 0.58,-2.25 0.91,-3.36c0.78,-2.62 2.45,-4.44 5,-5.43c0.32,-0.13 0.66,-0.21 1,-0.31c1.27,-0.35 1.89,-1.15 2.02,-2.5c0.26,-2.79 1.63,-5 3.79,-6.8c1.97,-1.65 4.17,-1.89 6.55,-1.39c0.57,0.12 1.13,0.32 1.64,0.59c1.45,0.8 2.68,0.82 4.13,-0.28c2.65,-2 5.34,-1.08 7.76,0.59c2.13,1.47 3.79,3.41 4.68,5.93c0.58,1.64 1.17,3.29 1.84,4.89c0.35,0.85 0.85,1.65 1.35,2.42c0.32,0.48 1.11,0.42 1.55,0.01c0.52,-0.5 0.85,-1.09 1.01,-1.79c0.35,-1.48 0.47,-2.96 0.24,-4.49c-0.77,-5.19 -1.75,-10.29 -3.83,-15.16c-2.06,-4.81 -3.7,-9.78 -5.34,-14.75c-0.95,-2.86 -2.13,-5.62 -2.57,-8.66c-0.85,-5.87 -0.02,-11.34 3.24,-16.37c0.82,-1.27 1.5,-2.62 2.35,-3.87c1.64,-2.42 3.45,-4.7 6.25,-5.9c1.03,-0.44 1.64,-1.27 2.08,-2.25c0.38,-0.84 0.72,-1.71 1.09,-2.56c2.15,-4.84 5.8,-8.07 10.78,-9.74c0.96,-0.32 1.56,-0.88 2.22,-1.56c2.18,-2.24 4.32,-4.55 6.68,-6.62c3.27,-2.88 7.16,-4.22 11.58,-3.85c1.53,0.14 2.94,0.61 4.34,1.2c1.4,0.59 1.94,0.39 2.46,-0.97c0.95,-2.5 2.15,-4.88 3.43,-7.23c1.07,-1.97 2.37,-3.73 4,-5.24c3.25,-3.02 6.68,-5.77 10.87,-7.43c1.34,-0.53 2.67,-0.77 4.09,-0.6c3.01,0.35 5.99,0.83 8.68,2.37c0.5,0.29 1.05,0.5 1.57,0.76c0.88,0.42 1.74,0.5 2.68,0.11c2.7,-1.1 5.29,-2.34 7.74,-3.96c3.68,-2.44 6.97,-5.45 10.87,-7.56c6.62,-3.57 13.6,-4.5 20.91,-2.87c2.74,0.62 5.34,1.72 7.61,3.37c1.81,1.32 3.78,1.7 5.91,1.65c1.86,-0.04 3.72,-0.11 5.58,-0.15c2.71,-0.04 5.33,0.43 7.85,1.42c1.41,0.56 2.86,1.2 3.8,2.4c2.82,3.63 6.81,5.12 11,6.24c2.33,0.62 4.29,1.69 5.92,3.46c2.94,3.19 3.73,8.48 1.74,12.36c-0.8,1.55 -1.77,3 -2.97,4.28c-0.49,0.52 -0.23,1.18 0.46,1.27c3.57,0.44 7.14,0.99 10.73,1.26c9.55,0.71 17,5.05 22.57,12.76c1.25,1.74 1.99,3.7 2.26,5.8c0.96,7.55 -1.22,14.01 -6.89,19.18c-1.28,1.16 -2.49,2.45 -4.16,3.12c-0.98,0.39 -1.15,1.36 -1.51,2.22c-1.74,4.3 -5.07,6.81 -9.37,8.21c-1.35,0.44 -2.73,0.54 -4.13,0.5c-1.63,-0.04 -3.25,-0.15 -4.88,-0.2c-1.55,-0.05 -2.97,-0.44 -4.24,-1.37c-0.47,-0.35 -0.99,-0.61 -1.51,-0.86c-0.53,-0.25 -1.23,0.08 -1.38,0.67c-0.17,0.67 -0.29,1.36 -0.39,2.05c-0.89,6.53 -4.07,11.77 -9.02,16.02c-3.36,2.89 -7.18,4.45 -11.66,4.94c-3.97,0.44 -7.59,-0.32 -11.24,-1.59c-1.35,-0.47 -2.1,-1.36 -2.51,-2.67c-0.94,-3.04 0.44,-6.69 3.05,-7.72c0.84,-0.33 1.81,-0.37 2.73,-0.49c2.84,-0.37 4,-1.53 3.77,-4.32c-0.3,-3.77 -1.75,-6.99 -5.33,-8.82c-2.69,-1.37 -5.38,-2.74 -8.3,-3.61c-4.46,-1.34 -8.8,-2.98 -12.89,-5.24c-1.22,-0.68 -2.53,-1.14 -3.9,-1.19c-0.42,0.32 -0.35,0.69 -0.09,0.92c2.68,2.34 3.84,5.48 4.59,8.81c0.58,2.57 2.16,4.32 4.33,5.64c1.22,0.75 2.53,1.1 3.98,1.07c2.23,-0.04 4.37,-0.57 6.55,-0.91c0.69,-0.11 1.38,-0.31 2.06,-0.28c1.91,0.1 3.21,1.69 2.95,3.57c-0.23,1.64 -0.76,3.19 -1.92,4.41c-1.76,1.86 -3.48,3.77 -5.36,5.49c-2.19,2 -4.7,3.39 -7.84,3.23c-1.04,-0.06 -2.09,0.08 -3.13,0.19c-2.66,0.27 -5.31,0.71 -7.95,-0.17c-0.22,-0.08 -0.62,0.19 -0.84,0.4c-0.1,0.09 -0.05,0.47 0.05,0.65c2.21,3.78 3.04,8.05 3.92,12.22c1.33,6.35 -0.85,11.66 -5.76,15.85c-0.52,0.44 -1.16,0.76 -1.77,1.09c-2.18,1.15 -4.57,1.71 -6.92,2.34c-1.48,0.39 -3.01,0.15 -4.48,-0.29c-2.01,-0.59 -4.02,-1.17 -6,-1.83c-1.14,-0.37 -2.22,-0.48 -3.41,-0.2c-1.58,0.38 -3.21,0.55 -4.81,0.81c-0.44,0.07 -0.92,0.09 -1.2,0.85c1.88,1.37 3.82,2.79 5.77,4.19c1.51,1.09 3.07,2.1 4.55,3.23c3.25,2.5 4.92,5.82 4.96,9.92c0.02,2.1 0.1,4.2 -0.09,6.28c-0.32,3.56 -1.54,6.75 -4.17,9.34c-1.65,1.63 -3.22,3.34 -4.98,4.87c-1.82,1.58 -3.8,2.6 -6.24,2.81c-1.56,0.13 -1.85,0.41 -1.94,1.9c-0.5,7.66 -5.32,11.78 -11.85,14.44c-1.6,0.66 -3.32,1.05 -5,1.49c-1.16,0.31 -2.31,0.12 -3.41,-0.34c-0.67,-0.28 -1.17,-0.72 -1.61,-1.29c-1.71,-2.22 -0.58,-7.33 3.03,-7.74c0.35,-0.04 0.69,-0.12 1.04,-0.13c3.18,-0.03 5.42,-1.86 7.49,-3.96c1.49,-1.51 1.63,-2.59 0.4,-4.33c-2.69,-3.75 -6.01,-6.76 -10.42,-8.42c-3.29,-1.23 -6.71,-1.96 -10.15,-2.47c-4.81,-0.7 -9.65,-1.18 -14.41,-1.74c-0.25,0.65 0,0.9 0.3,1.01c4.79,1.73 8.69,4.84 12.58,8c3.85,3.14 5.26,7.29 5.18,12.03c-0.06,3.14 -0.68,6.22 -2.02,9.13c-1.56,3.44 -3.95,5.7 -7.9,5.9c-1.28,0.07 -2.55,0.19 -3.83,0.2c-1.56,0.02 -2.98,-0.52 -4.23,-1.41c-2.23,-1.59 -2.74,-4.51 -1.2,-6.79c0.39,-0.57 0.88,-1.07 1.34,-1.6c0.37,-0.44 0.8,-0.85 1.12,-1.33c1.28,-1.92 0.89,-3.58 -1.11,-4.64c-0.62,-0.32 -1.28,-0.59 -1.94,-0.77c-4.29,-1.14 -8.64,-1.88 -13.08,-1.81c-2.8,0.05 -5.61,0.44 -8.24,1.34c-3.1,1.07 -5.78,2.89 -7.55,5.81l-0.13,0.1l0.07,-0.16c1.23,0.12 2.27,-0.52 3.31,-0.97c3.88,-1.7 7.77,-1.13 11.63,-0.12c2.52,0.66 3.77,2.65 3.56,4.89c-0.18,2.08 -2.83,4.74 -4.93,4.72c-1.44,-0.02 -2.79,-0.26 -4.01,-1c-1.91,-1.16 -3.78,-0.91 -5.63,0.05c-2.4,1.24 -4.52,2.84 -6.23,4.96c-0.36,0.45 -0.6,1.08 -1.05,1.38c-1.98,1.27 -2.47,3.3 -2.81,5.37c-1.21,7.45 -2.38,14.9 -4.01,22.28c-0.38,1.7 -0.67,3.42 -1.07,5.11c-0.05,0.24 -0.52,0.54 -0.77,0.52c-0.27,-0.02 -0.69,-0.34 -0.73,-0.6c-0.13,-0.67 -0.21,-1.38 -0.1,-2.05c0.41,-2.52 0.82,-5.05 1.37,-7.55c1.49,-6.7 2.31,-13.51 3.42,-20.28c0.28,-1.68 -0.22,-3.24 -1.03,-4.67c-0.69,-1.22 -1.45,-2.37 -1.4,-3.87c0.03,-0.89 -0.69,-1.44 -1.28,-1.99c-2.06,-1.9 -4.26,-3.61 -6.88,-4.68c-0.97,-0.39 -1.96,-0.77 -2.87,-1.27c-1.29,-0.7 -2.07,-2.57 -1.72,-3.88c0.41,-1.53 2.09,-2.67 3.78,-2.39c1.02,0.17 2.01,0.55 2.97,0.95c1.83,0.76 3.61,1.61 5.42,2.39c0.81,0.35 1.38,-0.01 1.45,-0.89c0.17,-2.22 -0.02,-4.42 -0.4,-6.6c-0.43,-2.4 -1.03,-4.77 -1.9,-7.06c-0.76,-2.03 -2.05,-3.63 -3.72,-4.96c-1.98,-1.58 -3.28,-1.69 -5.42,-0.49c-0.41,0.22 -0.78,0.51 -1.18,0.75c-1.75,1.05 -2.94,0.92 -4.36,-0.44c-3.28,-3.16 -3.06,-8.34 0.69,-10.94c4.22,-2.92 8.76,-3.84 13.65,-0.52c0.57,0.39 1.18,0.73 1.77,1.1c0,-0.01 -0.05,0.03 -0.05,0.03zm103.32,-107.58c0.17,-0.07 0.56,0.23 0.48,-0.28c-0.15,0.11 -0.3,0.22 -0.44,0.33c-0.87,0.31 -1.8,0.52 -2.61,0.95c-7.65,4.15 -15.73,7.56 -22.62,13.04c-0.45,0.37 -0.99,0.61 -1.45,0.96c-3.53,2.67 -7.46,4.76 -10.78,7.71c-5.92,5.25 -11.41,10.96 -16.55,16.97c-5.51,6.45 -10.46,13.36 -14.57,20.82c-1.13,2.04 -2.31,4.04 -3.39,6.1c-2.32,4.42 -4.7,8.82 -6.85,13.33c-3.66,7.67 -6.45,15.69 -9.2,23.73c-0.97,2.85 -1.85,5.76 -2.5,8.71c-1.44,6.58 -2.73,13.21 -4.06,19.82c-0.14,0.72 -0.46,1.49 0.12,2.31c0.98,-0.92 1.18,-2.1 1.59,-3.16c3.33,-8.68 6.37,-17.46 9.02,-26.38c2.26,-7.58 4.9,-15.03 7.56,-22.48c1.29,-3.62 2.9,-7.1 4.74,-10.48c2.38,-4.39 4.79,-8.77 7.22,-13.14c1.7,-3.05 3.29,-6.18 5.24,-9.05c4.27,-6.28 9.51,-11.73 15.15,-16.8c2.94,-2.64 5.91,-5.25 8.84,-7.91c4.41,-3.98 9.05,-7.67 14.01,-10.93c6.61,-4.35 13.25,-8.64 19.88,-12.95c0.48,-0.32 0.99,-0.61 1.17,-1.22zm-91.03,133.83c1.2,0.39 1.73,-0.16 2.32,-0.48c1.13,-0.62 2.3,-1.13 3.57,-1.36c1.83,-0.33 3.68,-0.56 5.5,-0.92c2.42,-0.49 4.85,-0.55 7.29,-0.22c2.88,0.38 5.76,0.78 8.61,1.35c1.22,0.24 2.45,0.77 3.53,1.41c2.91,1.72 3.67,4.95 1.94,7.85c-0.36,0.59 -0.85,1.1 -1.28,1.65c-0.44,0.55 -0.93,1.05 -1.3,1.64c-0.8,1.26 -0.55,2.48 0.63,3.36c0.76,0.57 1.58,1.01 2.55,1c1.16,-0.02 2.32,-0.16 3.48,-0.14c2.53,0.03 4.15,-1.34 5.23,-3.43c1.92,-3.72 2.7,-7.66 2.04,-11.83c-0.5,-3.1 -1.87,-5.71 -4.42,-7.65c-1.66,-1.27 -3.24,-2.67 -4.98,-3.82c-3.7,-2.46 -7.67,-4.36 -12.14,-5.02c-0.92,-0.13 -1.85,-0.2 -2.66,-0.72c-0.61,-0.4 -1.12,-0.9 -0.99,-1.69c0.1,-0.62 0.59,-1 1.18,-1.16c3.04,-0.82 6.14,-1.41 9.3,-1c6.33,0.82 12.7,1.38 18.98,2.63c4.4,0.87 8.49,2.42 12.1,5.11c2.64,1.97 4.62,4.57 6.5,7.23c1.03,1.46 1.05,2.99 -0.01,4.54c-2.45,3.59 -5.45,6.33 -10,6.86c-0.57,0.07 -1.16,0.13 -1.69,0.32c-0.86,0.29 -1.37,1.32 -1.24,2.26c0.11,0.8 0.78,1.43 1.67,1.52c0.46,0.05 0.95,0.09 1.38,-0.01c4.28,-0.99 8.12,-2.83 11.12,-6.11c1.62,-1.77 2.43,-3.91 2.73,-6.3c0.34,-2.73 -0.25,-5.29 -0.99,-7.88c-1.66,-5.84 -5.19,-10.08 -10.65,-12.65c-2.84,-1.33 -5.74,-2.53 -8.91,-2.92c-1.49,-0.19 -2.96,-0.63 -4.42,-1.01c-2.37,-0.62 -4.78,-1.09 -7.22,-1.08c-4.88,0.03 -9.76,0.2 -14.64,0.3c-0.46,0.01 -0.93,0.02 -1.38,-0.04c-0.63,-0.1 -1.01,-0.52 -1.17,-1.13c-0.13,-0.51 0.1,-0.91 0.4,-1.27c0.15,-0.17 0.36,-0.3 0.56,-0.42c3.36,-1.87 6.88,-3.34 10.65,-4.2c2.52,-0.57 5.07,-0.66 7.6,-0.98c4.41,-0.56 8.77,-0.61 13.18,0.16c7.74,1.35 14.47,4.93 21.01,9.01c1.3,0.81 2.28,1.96 3.05,3.29c0.75,1.32 0.81,2.62 0.11,3.99c-0.69,1.36 -1.61,2.55 -2.65,3.66c-0.88,0.93 -1.71,1.91 -2.21,3.11c-0.52,1.23 -0.12,2.94 0.9,3.83c0.97,0.84 2.09,0.97 3.26,0.46c1.94,-0.86 3.65,-2.05 5.12,-3.57c0.97,-1 1.85,-2.09 2.81,-3.1c1.75,-1.84 2.67,-4.04 3.1,-6.51c0.4,-2.32 0.16,-4.63 0.09,-6.95c-0.09,-3.55 -1.71,-6.28 -4.4,-8.34c-2.68,-2.03 -5.5,-3.9 -8.36,-5.67c-2.37,-1.47 -4.92,-2.62 -7.73,-3.09c-0.9,-0.15 -1.73,-0.64 -2.6,-0.97c-5.01,-1.94 -10.05,-3.68 -15.57,-3.11c-0.8,0.08 -1.62,-0.07 -2.43,-0.1c-3.49,-0.17 -6.97,-0.42 -10.45,-0.48c-2.19,-0.03 -4.42,-0.2 -6.57,0.55c-0.41,0.14 -0.99,0.12 -1.09,-0.49c-0.05,-0.29 0.11,-0.67 0.29,-0.92c0.5,-0.68 1.21,-1.14 2.05,-1.21c2.2,-0.19 4.43,-0.58 6.6,-0.38c4.53,0.4 9.05,0.36 13.58,0.3c3.31,-0.05 6.54,0.41 9.6,1.5c3.22,1.15 6.41,1.84 9.85,1.81c2.69,-0.03 5.33,-0.35 7.98,-0.64c1.56,-0.18 1.8,-0.6 1.96,-2.3c0.25,-2.66 1.21,-3.73 3.76,-4.11c0.46,-0.07 0.93,-0.05 1.39,-0.08c0.58,-0.03 1.16,-0.06 1.74,-0.12c3.87,-0.43 5.73,-4.6 3.47,-7.8c-0.96,-1.34 -2.17,-2.44 -3.56,-3.31c-2.75,-1.74 -5.48,-3.52 -8.3,-5.13c-3.94,-2.24 -8.01,-4.26 -11.93,-6.53c-2.14,-1.24 -4.39,-2.13 -6.71,-2.89c-2.03,-0.66 -4.09,-0.85 -6.19,-0.33c-0.56,0.13 -1.14,0.27 -1.7,0.25c-0.47,-0.01 -0.87,-0.37 -0.99,-0.86c-0.15,-0.64 0.14,-1.12 0.72,-1.41c0.2,-0.1 0.44,-0.14 0.66,-0.19c4.27,-0.96 8.37,-0.31 12.16,1.72c4.1,2.18 8.26,4.23 12.35,6.44c4.19,2.26 8.33,4.61 12.29,7.29c1.58,1.07 2.77,2.47 3.84,3.99c0.69,0.97 0.99,2.06 1.09,3.26c0.33,4.05 -2.85,9.15 -8.33,8.48c-0.7,-0.09 -1.38,-0.15 -2.06,0.15c-0.62,0.28 -0.96,1.19 -0.63,1.77c0.55,0.96 1.42,1.51 2.41,1.9c4.87,1.92 9.68,2.27 14.47,-0.35c1.47,-0.8 2.79,-1.7 3.79,-3.01c1.96,-2.57 3.1,-5.38 2.93,-8.72c-0.17,-3.3 -1.27,-6.37 -1.98,-9.53c-0.75,-3.33 -2.6,-6.01 -5.29,-7.98c-3.11,-2.27 -6.06,-4.72 -8.94,-7.24c-3.84,-3.37 -7.59,-6.86 -10.92,-10.76c-0.45,-0.53 -0.87,-1.09 -1.2,-1.69c-0.24,-0.43 -0.12,-0.91 0.28,-1.26c0.37,-0.33 0.81,-0.38 1.29,-0.26c0.74,0.19 1.1,0.82 1.57,1.32c3.76,3.97 7.7,7.75 11.76,11.42c3.54,3.2 7.64,5.24 12.08,6.74c2.13,0.72 4.29,0.99 6.53,0.7c1.73,-0.22 3.47,-0.44 5.21,-0.47c2.36,-0.03 4.23,-1.03 5.98,-2.48c2.08,-1.72 3.7,-3.86 5.41,-5.91c0.21,-0.26 0.34,-0.6 0.49,-0.91c0.36,-0.76 -0.03,-1.51 -0.82,-1.51c-0.92,0 -1.85,0.09 -2.77,0.19c-1.5,0.15 -3,0.34 -4.5,0.51c-2.59,0.28 -4.79,-0.63 -6.82,-2.13c-2.33,-1.74 -3.94,-3.98 -4.42,-6.87c-0.65,-3.9 -2.9,-6.77 -5.75,-9.28c-0.78,-0.69 -1.62,-1.32 -2.4,-2.03c-2.16,-1.94 -4.33,-3.89 -5.97,-6.32c-0.51,-0.77 -1.12,-1.57 -0.41,-2.53c0.51,-0.68 1.6,-0.45 2.62,0.83c2.88,3.65 6.8,5.51 11.1,6.82c1,0.31 2.04,0.57 2.94,1.08c4.49,2.53 9.36,4.09 14.24,5.61c2.45,0.77 4.83,1.71 7.14,2.82c4.19,2.01 6.6,5.45 7.56,9.88c1.13,5.18 -1.94,9.5 -6.22,9.24c-1.97,-0.13 -2.63,1.13 -3.08,2.67c-0.41,1.38 -0.02,2.15 1.33,2.78c4.22,1.95 8.57,1.72 12.97,0.82c0.34,-0.07 0.67,-0.21 0.99,-0.35c4.7,-2.15 8.39,-5.51 10.86,-9.98c2.78,-5.03 3.49,-10.54 2.7,-16.24c-0.21,-1.53 -0.74,-2.95 -1.74,-4.12c-4.19,-4.87 -8.74,-9.4 -14.16,-12.85c-4.99,-3.19 -10.3,-5.87 -16.04,-7.57c-4.21,-1.24 -7.66,-3.85 -11.08,-6.46c-0.36,-0.27 -0.45,-0.83 -0.2,-1.28c0.24,-0.45 0.66,-0.63 1.16,-0.58c1.1,0.1 1.9,0.78 2.76,1.39c2.48,1.73 4.99,3.42 7.93,4.3c10.7,3.21 19.84,8.98 27.79,16.77c3.21,3.15 5.93,6.54 6.75,11.12c0.06,0.34 0.14,0.7 0.3,1c0.22,0.39 0.46,0.85 0.81,1.1c1.91,1.34 3.88,2.63 6.31,2.73c1.97,0.09 3.96,0.18 5.93,0.07c4.15,-0.23 7.41,-2.04 9.06,-6c1.71,-4.12 1.79,-8.16 -1.43,-11.73c-0.62,-0.69 -1.21,-1.42 -1.89,-2.04c-3.85,-3.56 -7.88,-6.89 -12.27,-9.77c-1.56,-1.03 -3.24,-1.8 -4.99,-2.46c-3.26,-1.23 -6.52,-2.46 -9.77,-3.74c-2.17,-0.85 -4.18,-2.03 -6.15,-3.27c-0.79,-0.49 -1.51,-1.07 -1.83,-2.03c-0.16,-0.49 0.36,-1.22 0.89,-1.25c0.63,-0.04 1.12,0.22 1.6,0.56c1.43,1.02 2.92,1.91 4.55,2.57c3.66,1.48 7.31,3 11.01,4.39c3.29,1.23 6.41,2.73 9.21,4.87c4.16,3.17 8.3,6.37 11.72,10.39c1.3,1.53 2.34,3.18 2.76,5.17c0.14,0.68 0.34,1.35 0.55,2.02c0.21,0.65 0.78,0.84 1.38,0.47c0.49,-0.3 0.98,-0.63 1.41,-1.01c4.36,-3.85 6.42,-8.68 6.35,-14.51c-0.04,-3.95 -1.38,-7.29 -4.23,-9.98c-1.6,-1.51 -3.21,-3.08 -5.03,-4.28c-3.82,-2.52 -7.91,-4.32 -12.62,-4.62c-3.47,-0.23 -6.91,-0.9 -10.36,-1.37c-0.57,-0.08 -1.14,-0.17 -1.72,-0.2c-2.44,-0.12 -4.88,-0.2 -7.31,-0.34c-7.67,-0.42 -15.34,-0.73 -22.94,0.73c-3.08,0.6 -6.17,1.18 -9.22,1.93c-6.33,1.54 -12.54,3.47 -18.65,5.74c-4.05,1.5 -7.85,3.5 -11.73,5.36c-3.79,1.81 -7.31,4.07 -10.86,6.27c-4.35,2.7 -8.56,5.6 -12.83,8.41c-3.31,2.17 -6.59,4.38 -9.61,6.93c-2.04,1.73 -4.02,3.52 -6.03,5.28c-3.49,3.07 -7.04,6.07 -10.46,9.21c-2.23,2.04 -4.43,4.15 -6.34,6.48c-1.98,2.42 -4.28,4.6 -5.86,7.35c-3.23,5.65 -6.5,11.29 -9.69,16.96c-1.76,3.14 -3.4,6.35 -5.09,9.53c-2.46,4.65 -3.91,9.69 -5.6,14.63c-2.51,7.36 -4.76,14.82 -7.15,22.23c-1.65,5.09 -3.11,10.24 -5.24,15.16c-0.64,1.48 -1.03,3.07 -1.59,4.8zm-9.01,13.58c0.68,-0.6 0.71,-1.42 0.85,-2.2c0.65,-3.66 1.26,-7.33 1.97,-10.98c1.2,-6.16 2.6,-12.29 3.67,-18.47c0.84,-4.84 2.11,-9.53 3.77,-14.13c0.44,-1.2 0.88,-2.4 1.28,-3.61c3.43,-10.29 8,-20.08 13.04,-29.66c2.54,-4.83 5.3,-9.55 8.2,-14.19c4.27,-6.82 9,-13.26 14.52,-19.12c1.99,-2.11 3.99,-4.23 5.93,-6.38c4.08,-4.51 8.58,-8.5 13.67,-11.85c3.2,-2.11 6.33,-4.33 9.41,-6.61c1.6,-1.18 3.16,-2.39 4.91,-3.31c5.86,-3.09 11.65,-6.34 17.64,-9.14c5.04,-2.36 10.33,-4.19 15.51,-6.25c0.87,-0.35 1.88,-0.78 2.7,-0.36c1.92,0.99 3.67,0.29 5.38,-0.32c5.83,-2.06 11.82,-3.5 17.82,-4.89c4.3,-0.99 8.68,-1.77 13.1,-1.88c5.33,-0.14 10.69,-0.51 16,0.45c0.57,0.1 1.18,0.06 1.64,-0.38c1.25,-1.2 2.58,-2.35 3.69,-3.68c2.2,-2.59 2.65,-5.65 1.8,-8.86c-0.66,-2.51 -2.22,-4.32 -4.78,-5.12c-0.78,-0.24 -1.57,-0.41 -2.35,-0.65c-4.02,-1.23 -7.9,-2.63 -10.82,-5.96c-2.27,-2.59 -5.46,-3.48 -8.78,-3.7c-1.74,-0.12 -3.49,-0.03 -5.23,0.08c-3.84,0.25 -7.35,-0.44 -10.52,-2.81c-2.67,-2 -5.82,-2.9 -9.13,-3.07c-1.74,-0.09 -3.51,-0.1 -5.23,0.11c-2.99,0.37 -6.06,0.75 -8.75,2.18c-2.35,1.24 -4.53,2.82 -6.71,4.36c-3.33,2.35 -6.6,4.77 -10.22,6.66c-1.85,0.97 -3.65,2.03 -5.49,3c-6.45,3.42 -11.27,8.48 -15.4,14.34c-1.07,1.52 -2.11,3.07 -3.17,4.59c-0.4,0.57 -0.79,1.2 -1.48,1.43c-0.29,0.09 -0.71,0.05 -0.98,-0.1c-0.44,-0.25 -0.53,-0.73 -0.37,-1.21c0.08,-0.22 0.21,-0.42 0.35,-0.61c1.47,-2.09 2.96,-4.16 4.42,-6.26c3.07,-4.42 6.7,-8.32 10.98,-11.6c0.72,-0.56 1.99,-0.86 1.96,-1.82c-0.04,-1.24 -1.43,-1.33 -2.35,-1.73c-1.3,-0.56 -2.71,-0.65 -4.06,-0.97c-3.2,-0.74 -5.98,0.17 -8.59,1.89c-1.16,0.76 -2.24,1.66 -3.4,2.43c-3.21,2.11 -5.4,5.07 -7.16,8.4c-2.02,3.83 -3.42,7.91 -4.31,12.12c-1.03,4.9 -2.49,9.67 -3.89,14.47c-2.21,7.59 -5.24,14.91 -7.3,22.55c-0.3,1.12 -0.77,2.2 -1.24,3.26c-0.23,0.52 -0.6,1 -0.99,1.41c-0.21,0.21 -0.62,0.34 -0.94,0.33c-0.5,-0.02 -0.81,-0.39 -0.95,-0.86c-0.27,-0.93 -0.07,-1.84 0.06,-2.77c0.42,-3.1 1.1,-6.21 1.16,-9.32c0.14,-6.63 -0.08,-13.26 -1.75,-19.74c-0.49,-1.86 -0.34,-3.69 0.33,-5.48c1.21,-3.21 3.46,-4.77 6.93,-4.78c0.93,0 1.86,0.1 2.78,0.19c0.7,0.06 1.38,0.19 2.08,0.26c0.48,0.05 0.93,-0.08 1.16,-0.56c0.28,-0.54 0.4,-1.16 0.01,-1.65c-0.35,-0.43 -0.83,-0.81 -1.33,-1.07c-2.24,-1.16 -4.65,-1.47 -7.12,-1c-2.3,0.44 -4.38,1.32 -6.23,2.9c-4.76,4.07 -9.03,8.43 -10.26,14.9c-0.02,0.12 -0.07,0.23 -0.12,0.33c-0.31,0.55 -0.74,0.89 -1.41,0.7c-0.51,-0.14 -0.77,-0.58 -0.72,-1.06c0.12,-1.15 0.38,-2.29 0.5,-3.44c0.03,-0.29 -0.13,-0.75 -0.36,-0.89c-0.23,-0.14 -0.71,-0.1 -0.98,0.04c-2.87,1.6 -4.66,4.13 -5.91,7.09c-0.5,1.18 -0.91,2.39 -1.4,3.57c-0.52,1.24 -1.33,2.11 -2.75,2.4c-1.42,0.28 -2.54,1.18 -3.46,2.25c-3.12,3.67 -5.45,7.79 -6.74,12.46c-0.25,0.89 -0.28,1.84 -0.34,2.76c-0.23,3.77 0.34,7.46 1.57,10.99c2.43,7.03 5,14.01 7.57,20.98c1.63,4.41 2.38,8.98 2.75,13.62c0.11,1.48 -0.23,3 -0.42,4.5c-0.2,1.48 -1.07,2.54 -2.3,3.33c-1.91,1.23 -3.48,1.03 -4.84,-0.86c-0.74,-1.02 -1.24,-2.23 -1.73,-3.4c-0.62,-1.5 -1.13,-3.05 -1.66,-4.59c-0.79,-2.31 -2.44,-3.95 -4.34,-5.32c-1.81,-1.3 -3.43,-0.97 -4.88,0.76c-1.59,1.91 -1.66,1.93 -3.57,0.63c-0.38,-0.26 -0.72,-0.6 -1.11,-0.83c-3.25,-1.94 -6.82,-0.97 -8.63,2.33c-0.56,1.03 -0.96,2.14 -1,3.32c-0.04,1.02 0.49,2.09 -0.17,3.05c-0.79,1.14 -2.11,0.78 -3.2,1.03c-1.63,0.38 -3.1,0.99 -4.01,2.52c-1.29,2.17 -1.7,4.57 -1.77,7.02c-0.04,1.16 0.41,2.29 1.28,3.16c0.82,0.84 1.82,0.94 2.9,0.69c0.11,-0.03 0.23,0 0.35,0.01c1.09,0.11 1.64,1.13 1.02,2.01c-0.67,0.94 -1.55,1.74 -2.11,2.74c-0.84,1.49 -0.28,2.69 1.38,3.24c2.13,0.7 4.35,0.9 6.55,0.63c4.43,-0.55 8.26,0.68 11.67,3.48c0.45,0.37 0.98,0.64 1.39,1.04c2.03,1.95 3.82,4.06 4.78,6.77c0.32,0.89 0.47,1.78 0.12,2.71c-0.37,0.96 -1.25,1.38 -2.25,1.08c-0.93,-0.27 -1.65,-0.83 -2.22,-1.59c-0.99,-1.33 -2.29,-2.33 -3.6,-3.28c-4.22,-3.07 -8.41,-1.2 -11.07,1.3c-1.72,1.62 -1.69,3.77 -0.25,5.67c0.63,0.83 1.26,1 2.11,0.54c0.31,-0.17 0.57,-0.4 0.87,-0.58c3.16,-1.87 5.46,-1.71 8.3,0.59c2.53,2.03 4.3,4.54 5.03,7.74c0.25,1.13 0.53,2.27 0.89,3.37c1.24,3.83 1.32,7.77 1.12,11.73c-0.04,0.8 -0.26,1.61 -0.52,2.36c-0.31,0.86 -1.16,1.12 -2.02,0.7c-0.41,-0.21 -0.82,-0.45 -1.18,-0.73c-2.04,-1.58 -4.44,-2.53 -6.69,-3.73c-0.62,-0.33 -1.25,-0.64 -1.99,-0.51c-0.35,0.07 -0.66,0.25 -0.68,0.65c-0.01,0.21 0.03,0.52 0.16,0.63c0.36,0.28 0.76,0.53 1.18,0.7c3.49,1.47 6.45,3.67 9.1,6.34c0.72,0.71 1.24,1.71 2.37,2.05zm40.03,-44.86c1.97,0 3.93,0.03 5.89,-0.01c3.5,-0.06 6.95,0.26 10.33,1.23c1.67,0.48 3.4,0.74 5.1,1.12c6.89,1.53 12.97,4.4 17.15,10.39c2.03,2.91 1.69,2.97 4.33,0.1c0.47,-0.51 0.93,-1.03 1.31,-1.62c0.96,-1.51 0.87,-2.43 -0.27,-3.78c-0.91,-1.08 -2.05,-1.9 -3.25,-2.59c-2.21,-1.28 -4.43,-2.54 -6.73,-3.64c-5.63,-2.67 -11.54,-4.33 -17.82,-4.09c-3.94,0.16 -7.87,0.61 -11.8,0.99c-1.48,0.14 -2.94,0.48 -4.24,1.9zm3.98,-88.76c0.32,-0.29 0.44,-0.35 0.48,-0.45c2.92,-6.85 4.68,-14.07 6.67,-21.21c0.44,-1.55 -0.17,-2.28 -1.87,-2.69c-0.9,-0.22 -1.82,-0.41 -2.74,-0.45c-2.42,-0.1 -3.92,1 -4.7,3.32c-0.5,1.48 -0.42,2.97 -0.13,4.47c0.9,4.67 1.44,9.39 1.78,14.14c0.06,0.89 -0.16,1.84 0.51,2.87zm-27.47,126.88c-4.99,0.38 -8.87,2.16 -11.84,5.73c-0.34,0.41 -0.42,1.07 -0.55,1.62c-0.04,0.18 0.08,0.48 0.22,0.59c0.15,0.1 0.49,0.13 0.63,0.03c0.87,-0.57 1.66,-1.26 2.55,-1.78c3.39,-1.99 6.83,-3.52 10.72,-1.19c0.49,0.29 1.08,0.43 1.64,0.55c1.37,0.28 2.71,-0.61 3.17,-2.05c0.32,-1.01 -0.37,-2.09 -1.84,-2.5c-1.66,-0.46 -3.38,-0.72 -4.7,-1z" fill="#3A3A3A" id="svg_28"/>
    </g>
   </g>
  </g>
 </g>
</svg>