<?xml version="1.0"?>
<svg width="92" height="17" xmlns="http://www.w3.org/2000/svg" xmlns:svg="http://www.w3.org/2000/svg" enable-background="new 0 0 500 500" version="1.1" xml:space="preserve">
 <g class="layer">
  <title>Layer 1</title>
  <g id="OBJECTS">
   <g id="svg_3">
    <path d="m16.89,13.19c0,0 -0.36,0.31 -1.07,0.89c-0.18,0.14 -0.38,0.3 -0.59,0.47c-0.27,0.15 -0.55,0.32 -0.86,0.5c-0.31,0.18 -0.64,0.38 -1.01,0.58c-0.39,0.16 -0.83,0.33 -1.28,0.51c-0.43,0.2 -0.95,0.34 -1.51,0.45c-0.28,0.06 -0.56,0.12 -0.86,0.18c-0.29,0.05 -0.62,0.06 -0.94,0.08c-0.32,0.03 -0.64,0.05 -0.98,0.07c-0.34,-0.03 -0.69,-0.06 -1.04,-0.08c-0.71,-0.02 -1.4,-0.26 -2.13,-0.44c-1.36,-0.51 -2.79,-1.28 -3.56,-2.46c-0.27,-0.27 -0.35,-0.59 -0.5,-0.9c-0.15,-0.31 -0.32,-0.62 -0.34,-0.96c-0.06,-0.33 -0.11,-0.66 -0.15,-1c0.04,-0.34 0.07,-0.68 0.11,-1.02c0.03,-0.35 0.14,-0.68 0.29,-1.01c0.13,-0.33 0.25,-0.67 0.41,-1c0.45,-0.61 0.79,-1.3 1.36,-1.87c1.08,-1.19 2.37,-2.29 4.21,-3.16c1.78,-0.85 3.87,-1.37 6.01,-1.52c2.13,-0.17 4.29,-0.05 6.41,0.23c4.23,0.59 8.33,1.73 12.42,2.93c4.08,1.24 8.19,2.56 12.31,3.78c2.07,0.61 4.14,1.1 6.28,1.56c2.12,0.48 4.22,0.94 6.32,1.35c4.21,0.83 8.38,1.51 12.43,1.77c4.05,0.28 7.98,0.19 11.38,-0.53c1.7,-0.37 3.22,-0.94 4.54,-1.64c0.32,-0.17 0.64,-0.36 0.93,-0.56c0.31,-0.18 0.59,-0.39 0.86,-0.61l0.39,-0.32l0.34,-0.34c0.27,-0.25 0.52,-0.5 0.76,-0.75c1.67,-1.78 2.51,-3.96 1.71,-5.51c-0.42,-0.77 -1.26,-1.28 -2.2,-1.53c-0.94,-0.29 -1.96,-0.23 -2.87,-0.18c-1.82,0.2 -3.24,0.67 -4.14,1.02c-0.93,0.36 -1.42,0.55 -1.42,0.55l-0.01,0.01c-0.07,0.02 -0.15,0 -0.18,-0.05c-0.03,-0.04 -0.01,-0.09 0.04,-0.12c0,0 0.45,-0.26 1.29,-0.71c0.87,-0.45 2.21,-1.07 4.21,-1.49c1.01,-0.16 2.21,-0.32 3.52,-0.03c1.3,0.23 2.68,0.92 3.41,1.98c0.71,1.06 0.86,2.32 0.59,3.53c-0.24,1.24 -0.98,2.4 -1.88,3.59c-0.24,0.26 -0.48,0.51 -0.71,0.77l-0.39,0.43l-0.46,0.41c-0.29,0.28 -0.62,0.53 -0.97,0.78c-0.34,0.26 -0.7,0.5 -1.09,0.72c-1.54,0.92 -3.39,1.61 -5.35,2.09c-3.95,0.94 -8.3,0.98 -12.57,0.6c-4.29,-0.39 -8.58,-1.16 -12.83,-2.14c-4.21,-1.03 -8.47,-2.11 -12.52,-3.62c-4.04,-1.45 -7.95,-3.01 -12.01,-4.22c-4.04,-1.21 -8.21,-2.16 -12.29,-2.42c-2.05,-0.13 -4.04,-0.11 -5.9,0.16c-1.85,0.28 -3.53,0.8 -4.93,1.52c-0.36,0.18 -0.71,0.37 -1,0.57l-0.46,0.29c-0.15,0.1 -0.32,0.25 -0.48,0.37l-0.46,0.37c-0.08,0.05 -0.24,0.23 -0.35,0.35c-0.25,0.25 -0.5,0.49 -0.74,0.75c-0.52,0.48 -0.79,1.03 -1.19,1.53c-0.13,0.27 -0.24,0.53 -0.36,0.8c-0.13,0.27 -0.24,0.53 -0.25,0.8c-0.04,0.27 -0.1,0.52 -0.14,0.79c0.03,0.26 0.06,0.5 0.07,0.76c-0.01,0.26 0.11,0.48 0.21,0.71c0.1,0.22 0.13,0.48 0.32,0.67c0.49,0.89 1.47,1.49 2.45,1.94c0.55,0.16 1.05,0.39 1.61,0.43c0.28,0.04 0.55,0.09 0.81,0.13c0.28,0 0.56,0 0.81,0c0.27,-0.01 0.53,0.01 0.8,-0.01c0.25,-0.04 0.5,-0.07 0.74,-0.11c0.5,-0.06 0.98,-0.12 1.4,-0.27c0.43,-0.12 0.84,-0.25 1.23,-0.35c0.36,-0.16 0.69,-0.31 1.01,-0.44c0.31,-0.14 0.6,-0.27 0.87,-0.39c0.25,-0.14 0.48,-0.28 0.69,-0.4c0.81,-0.48 1.26,-0.74 1.26,-0.74c0.06,-0.03 0.14,-0.03 0.2,0.02c0.04,0.03 0.04,0.09 -0.01,0.12z" fill="#1C1C1C" id="svg_12"/>
   </g>
  </g>
 </g>
</svg>