<?xml version="1.0"?>
<svg width="98" height="171" xmlns="http://www.w3.org/2000/svg" xmlns:svg="http://www.w3.org/2000/svg" enable-background="new 0 0 500 500" version="1.1" xml:space="preserve">
 <g class="layer">
  <title>Layer 1</title>
  <g id="BACKGROUND"/>
  <g id="OBJECTS" transform="rotate(-180 48.9689 85.5764)">
   <g id="svg_763">
    <g id="svg_764">
     <path d="m36.85,105.3l-0.02,-0.04c-0.24,-0.39 -0.48,-0.81 -0.69,-1.22c-0.24,-0.44 -0.37,-0.76 -0.56,-1.15c-0.35,-0.73 -0.67,-1.5 -0.99,-2.25c-0.63,-1.51 -1.18,-3.06 -1.65,-4.63c-0.97,-3.14 -1.6,-6.38 -1.93,-9.65c-0.15,-1.64 -0.23,-3.28 -0.24,-4.93c0.01,-1.63 0.1,-3.42 0.92,-5.04c0.8,-1.62 2.18,-2.84 3.66,-3.68c1.5,-0.85 3.11,-1.39 4.73,-1.78l0.01,0l0.04,-0.01c4.63,-0.66 9.28,-1.02 14,-0.5c2.38,0.33 4.67,0.96 6.85,2.02c1.08,0.56 2.12,1.26 2.98,2.2c0.87,0.93 1.49,2.12 1.78,3.34c0.29,1.22 0.34,2.44 0.34,3.61c-0.02,1.17 -0.05,2.33 -0.13,3.5c-0.17,2.33 -0.49,4.65 -0.98,6.93c-0.96,4.58 -2.56,9.02 -4.71,13.16l0,0c-0.11,0.21 -0.33,0.33 -0.55,0.33l-22.85,-0.22zm0.41,-0.81l0.03,0l22.41,-0.22l-0.55,0.33c2.07,-4.06 3.59,-8.39 4.49,-12.85c0.45,-2.23 0.75,-4.49 0.9,-6.76c0.08,-1.13 0.1,-2.26 0.11,-3.4c-0.01,-1.14 -0.07,-2.24 -0.32,-3.26c-0.48,-2.05 -2.08,-3.58 -4.04,-4.55c-1.95,-0.98 -4.17,-1.6 -6.35,-1.9c-4.46,-0.52 -9.1,-0.2 -13.59,0.43l0.05,-0.01c-1.53,0.36 -3.03,0.87 -4.37,1.62c-1.34,0.73 -2.5,1.76 -3.16,3.07c-0.68,1.29 -0.81,2.86 -0.83,4.45c-0.01,1.6 0.04,3.21 0.18,4.8c0.29,3.2 0.85,6.38 1.72,9.47c0.44,1.55 0.94,3.08 1.53,4.58c0.29,0.74 0.59,1.49 0.93,2.22l0.48,1.06c0.13,0.3 0.25,0.6 0.37,0.93z" fill="#3C3C3B" id="svg_765"/>
    </g>
    <g id="svg_766">
     <path d="m38.18,65.02c0.04,-1.23 0.65,-2.34 1.48,-3.13c0.82,-0.8 1.78,-1.4 2.81,-1.84c2.03,-0.92 4.25,-1.3 6.45,-1.34c2.2,-0.01 4.45,0.27 6.54,1.15c1.04,0.44 2.05,1.02 2.92,1.83c0.87,0.81 1.55,1.99 1.61,3.33c0.01,1.34 -0.62,2.6 -1.47,3.46c-0.86,0.89 -1.87,1.53 -2.92,2.02c-2.12,0.98 -4.42,1.34 -6.68,1.38c-2.26,0.01 -4.58,-0.43 -6.62,-1.51c-1.02,-0.53 -1.98,-1.21 -2.77,-2.09c-0.8,-0.87 -1.36,-2.03 -1.35,-3.26zm0.86,0c0.05,0.95 0.54,1.83 1.29,2.48c0.74,0.64 1.66,1.1 2.61,1.45c1.9,0.67 3.95,0.9 5.99,0.95c2.03,0 4.1,-0.31 5.93,-1.09c0.92,-0.37 1.78,-0.88 2.46,-1.51c0.68,-0.64 1.1,-1.44 1.16,-2.27c0.02,-0.84 -0.35,-1.7 -1.03,-2.41c-0.65,-0.7 -1.52,-1.28 -2.45,-1.71c-1.86,-0.87 -3.98,-1.26 -6.07,-1.31c-2.09,-0.01 -4.24,0.28 -6.16,1.13c-0.95,0.42 -1.85,0.97 -2.57,1.69c-0.7,0.72 -1.15,1.66 -1.16,2.61z" fill="#3C3C3B" id="svg_767"/>
    </g>
    <g id="svg_768">
     <path d="m40.93,54.86c0.03,-0.94 0.5,-1.78 1.13,-2.36c0.61,-0.59 1.33,-1.04 2.08,-1.36c1.5,-0.68 3.14,-0.98 4.77,-1.02c1.63,-0.01 3.28,0.18 4.85,0.83c0.77,0.32 1.54,0.73 2.2,1.36c0.66,0.59 1.21,1.51 1.26,2.56c0.02,1.05 -0.48,2.03 -1.13,2.7c-0.64,0.68 -1.4,1.18 -2.19,1.55c-1.59,0.75 -3.3,1.04 -4.99,1.06c-1.7,0 -3.42,-0.34 -4.94,-1.19c-0.75,-0.41 -1.47,-0.95 -2.04,-1.62c-0.58,-0.66 -1.01,-1.56 -1,-2.5zm0.86,0c0.05,0.65 0.39,1.27 0.94,1.71c0.54,0.43 1.21,0.74 1.88,0.98c1.38,0.43 2.85,0.57 4.31,0.61c1.46,-0.01 2.93,-0.22 4.24,-0.75c1.3,-0.49 2.49,-1.44 2.55,-2.55c0.08,-1.12 -1.08,-2.27 -2.4,-2.87c-1.34,-0.63 -2.87,-0.95 -4.39,-0.99c-1.52,-0.01 -3.08,0.19 -4.47,0.8c-0.69,0.31 -1.35,0.7 -1.85,1.23c-0.5,0.52 -0.81,1.18 -0.81,1.83z" fill="#3C3C3B" id="svg_769"/>
    </g>
    <g id="svg_770">
     <path d="m44.7,50.6c-0.32,-5.76 -1.75,-11.42 -3.92,-16.74c-1.07,-2.67 -2.3,-5.25 -3.57,-7.81c-1.29,-2.55 -2.64,-5.04 -3.87,-7.69c-0.1,-0.21 -0.01,-0.47 0.2,-0.57c0.17,-0.08 0.37,-0.04 0.5,0.09c2.06,2.13 3.64,4.65 4.96,7.28c1.33,2.63 2.35,5.39 3.22,8.19c1.67,5.63 2.8,11.37 3.33,17.19c0.02,0.23 -0.15,0.44 -0.38,0.46c-0.23,0.02 -0.44,-0.15 -0.46,-0.38c0,-0.01 0,-0.02 0,-0.02z" fill="#3C3C3B" id="svg_771"/>
    </g>
    <g id="svg_772">
     <path d="m52.25,50.54c0.54,-5.84 1.68,-11.6 3.35,-17.25c0.87,-2.82 1.9,-5.59 3.23,-8.23c1.32,-2.64 2.91,-5.16 4.98,-7.31c0.16,-0.17 0.44,-0.17 0.61,-0.01c0.13,0.13 0.16,0.33 0.09,0.49c-1.25,2.66 -2.6,5.16 -3.89,7.73c-1.27,2.57 -2.51,5.15 -3.58,7.83c-2.17,5.33 -3.62,11.03 -3.94,16.81c-0.01,0.23 -0.21,0.41 -0.44,0.4c-0.23,-0.01 -0.41,-0.21 -0.4,-0.44c0,-0.01 0,-0.02 0,-0.02z" fill="#3C3C3B" id="svg_773"/>
    </g>
    <g id="svg_774">
     <path d="m24.2,1.75c-1.18,0.21 -2.36,0.38 -3.54,0.64l-1.84,0.5l-0.93,0.25c-0.3,0.09 -0.59,0.22 -0.9,0.33l-1.78,0.68c-0.59,0.25 -1.15,0.56 -1.72,0.85l-0.85,0.43c-0.28,0.15 -0.54,0.33 -0.81,0.5c-0.53,0.34 -1.09,0.66 -1.6,1.04c-2.05,1.49 -3.85,3.31 -5.35,5.34c-1.48,2.03 -2.68,4.36 -3.32,6.71l-0.6,-0.72c15.98,-0.47 31.96,-0.95 47.95,-1.06c8,-0.06 15.99,-0.03 23.99,0.14c8,0.17 15.99,0.52 23.98,1.03l-0.75,0.8c-0.23,-1.55 -0.72,-3.17 -1.37,-4.67c-0.29,-0.77 -0.7,-1.49 -1.08,-2.21c-0.43,-0.69 -0.84,-1.42 -1.34,-2.06c-1.94,-2.64 -4.56,-4.76 -7.55,-6.11c-6.02,-2.92 -13,-2.09 -19.73,-2.25l-40.66,-0.16l-0.21,0zm0.4,-0.94l40.46,-0.16l5.09,-0.01c1.7,0.02 3.37,-0.06 5.11,0.07c3.45,0.04 6.92,0.81 10.1,2.23c3.19,1.42 6.01,3.69 8.1,6.5c0.54,0.69 0.98,1.46 1.44,2.19c0.4,0.78 0.84,1.54 1.16,2.35c0.68,1.62 1.21,3.26 1.49,5.06c0.06,0.37 -0.2,0.72 -0.57,0.78c-0.05,0.01 -0.1,0.01 -0.14,0.01l-0.04,-0.01c-7.96,-0.48 -15.94,-0.75 -23.92,-0.96c-7.98,-0.19 -15.96,-0.26 -23.95,-0.24c-15.97,0.05 -31.95,0.45 -47.92,0.86l-0.03,0c-0.32,0.01 -0.58,-0.24 -0.59,-0.56c0,-0.05 0.01,-0.11 0.02,-0.16c0.73,-2.65 2,-4.98 3.58,-7.11c1.59,-2.12 3.5,-4 5.66,-5.52c0.54,-0.38 1.12,-0.7 1.67,-1.06c0.28,-0.17 0.55,-0.36 0.85,-0.51l0.89,-0.44c0.6,-0.28 1.18,-0.6 1.79,-0.85l1.84,-0.69c0.31,-0.1 0.61,-0.23 0.94,-0.33l0.95,-0.24l1.91,-0.5c1.29,-0.26 2.6,-0.43 3.89,-0.65l0.24,-0.04z" fill="#3C3C3B" id="svg_775"/>
    </g>
    <g id="svg_776">
     <path d="m32.45,92.05c-0.72,1.7 -2.02,3.11 -3.51,4.14c-1.5,1.03 -3.19,1.7 -4.93,2.13c-3.47,0.81 -7.17,0.69 -10.59,-0.44c-1.7,-0.57 -3.33,-1.41 -4.78,-2.52c-1.43,-1.12 -2.68,-2.5 -3.61,-4.05c-1.88,-3.12 -2.7,-6.7 -2.9,-10.22c-0.38,-7.1 2,-14.29 6.55,-19.79c1.16,-1.35 2.43,-2.63 3.79,-3.74c1.38,-1.13 2.83,-2.12 4.31,-3.06c2.96,-1.85 6.04,-3.44 8.94,-5.2c2.89,-1.76 5.68,-3.69 7.89,-6.15c2.23,-2.42 3.77,-5.4 4.4,-8.61c0.62,-3.2 0.36,-6.62 -1.12,-9.45c-1.47,-2.81 -4.25,-4.97 -7.4,-5.24c-3.18,-0.28 -6.56,0.61 -9.15,2.5c-1.29,0.95 -2.38,2.18 -3.08,3.58c-0.7,1.4 -1.02,3.01 -0.94,4.58c0.09,1.58 0.59,3.12 1.54,4.35c0.94,1.23 2.32,2.11 3.84,2.51c1.52,0.39 3.15,0.29 4.6,-0.35c1.44,-0.62 2.7,-1.72 3.47,-3.1c0.17,-0.3 0.55,-0.41 0.86,-0.24c0.3,0.17 0.4,0.54 0.24,0.85c-0.89,1.65 -2.32,2.96 -4.03,3.73c-1.69,0.8 -3.68,0.97 -5.49,0.51c-1.82,-0.43 -3.51,-1.46 -4.71,-2.94c-1.19,-1.5 -1.83,-3.35 -1.96,-5.21c-0.11,-1.86 0.24,-3.74 1.07,-5.42c0.85,-1.68 2.09,-3.11 3.57,-4.21c2.97,-2.17 6.66,-3.19 10.35,-2.89c1.85,0.16 3.7,0.87 5.2,1.97c1.52,1.09 2.75,2.54 3.63,4.18c1.74,3.29 2.02,7.13 1.36,10.66c-0.65,3.56 -2.39,6.92 -4.81,9.58c-2.41,2.68 -5.32,4.75 -8.31,6.54c-2.99,1.8 -6.06,3.35 -8.95,5.13c-2.89,1.77 -5.56,3.81 -7.7,6.35c-4.29,5.09 -6.59,11.84 -6.27,18.51c0.16,3.31 0.92,6.66 2.59,9.47c0.84,1.41 1.93,2.63 3.2,3.63c1.28,1.01 2.76,1.75 4.31,2.3c3.1,1.11 6.55,1.29 9.78,0.59c1.6,-0.36 3.17,-0.95 4.53,-1.85c1.37,-0.9 2.51,-2.1 3.17,-3.56c0.12,-0.29 0.46,-0.41 0.75,-0.29c0.28,0.13 0.41,0.46 0.29,0.75z" fill="#3C3C3B" id="svg_777"/>
    </g>
    <g id="svg_778">
     <path d="m40.3,105.33l-6.9,0.34l0.55,-0.63c0.02,0.22 0.28,0.52 0.6,0.89c0.31,0.33 0.63,0.64 0.99,0.94c0.7,0.58 1.48,1.07 2.3,1.44l-0.29,-0.07c3.61,-0.05 7.22,-0.05 10.82,-0.08l5.41,0.02l5.4,0.04l-0.29,0.06c0.82,-0.37 1.59,-0.86 2.28,-1.43c0.35,-0.29 0.68,-0.6 0.99,-0.95c0.32,-0.35 0.58,-0.65 0.58,-0.86l0.59,0.66l-7.49,-0.34c-0.26,-0.01 -0.46,-0.23 -0.45,-0.48c0.01,-0.26 0.22,-0.45 0.47,-0.45l7.5,0.06c0.33,0 0.6,0.27 0.59,0.6l0,0.03l0,0.03c-0.03,0.38 -0.19,0.71 -0.35,0.97c-0.19,0.26 -0.33,0.42 -0.5,0.62c-0.33,0.39 -0.69,0.75 -1.08,1.09c-0.76,0.68 -1.63,1.26 -2.56,1.71c-0.09,0.04 -0.18,0.06 -0.27,0.06l-0.02,0l-5.41,0.04l-5.4,0.02c-3.61,-0.03 -7.22,-0.03 -10.82,-0.08l-0.02,0c-0.1,0 -0.19,-0.03 -0.27,-0.07c-0.92,-0.44 -1.77,-1.02 -2.54,-1.7c-0.38,-0.33 -0.74,-0.69 -1.08,-1.09c-0.17,-0.2 -0.31,-0.36 -0.49,-0.62c-0.17,-0.25 -0.32,-0.58 -0.35,-0.95l0,-0.03c-0.02,-0.3 0.21,-0.57 0.52,-0.59l0.04,0l6.9,-0.06c0.23,0 0.43,0.19 0.43,0.43c0,0.22 -0.18,0.41 -0.4,0.43z" fill="#3C3C3B" id="svg_779"/>
    </g>
    <g id="svg_780">
     <path d="m58.44,109.41c-0.26,3.16 -0.38,6.32 -0.35,9.49c0.01,1.58 0.05,3.16 0.12,4.75c0.06,1.58 0.14,3.18 0.02,4.8c-0.06,0.81 -0.17,1.62 -0.34,2.42c-0.16,0.8 -0.4,1.63 -0.95,2.36c-0.27,0.36 -0.64,0.68 -1.08,0.89c-0.44,0.2 -0.91,0.26 -1.32,0.3c-0.83,0.04 -1.53,0.11 -2.28,0.29c-1.47,0.35 -2.87,1.04 -4.04,1.97c-1.19,0.91 -2.04,2.2 -3.21,3.41c-0.58,0.59 -1.25,1.18 -2.11,1.56c-0.84,0.37 -1.76,0.53 -2.73,0.39c-0.95,-0.11 -1.97,-0.73 -2.45,-1.67c-0.48,-0.93 -0.51,-1.86 -0.56,-2.65c-0.16,-3.18 -0.24,-6.37 -0.27,-9.55c-0.04,-6.37 0.29,-12.75 1.17,-19.07c0.03,-0.2 0.22,-0.34 0.42,-0.31c0.19,0.02 0.32,0.19 0.32,0.37c-0.04,6.35 -0.18,12.67 -0.17,19c-0.01,3.16 0.06,6.33 0.16,9.49c0.02,0.78 0.06,1.49 0.31,1.99c0.24,0.5 0.7,0.83 1.32,0.94c0.6,0.11 1.31,0.02 1.92,-0.23c0.6,-0.24 1.19,-0.69 1.73,-1.21c1.08,-1.03 2.06,-2.39 3.44,-3.38c1.35,-1 2.9,-1.69 4.52,-2.03c0.81,-0.18 1.68,-0.24 2.44,-0.26c0.76,-0.02 1.34,-0.23 1.76,-0.78c0.43,-0.53 0.67,-1.26 0.86,-2c0.18,-0.74 0.28,-1.52 0.34,-2.29c0.13,-1.55 0.07,-3.13 0.02,-4.71c-0.06,-1.59 -0.09,-3.18 -0.09,-4.78c0.02,-3.18 0.12,-6.36 0.33,-9.54c0.01,-0.2 0.19,-0.36 0.39,-0.35c0.21,0.02 0.36,0.19 0.35,0.4c0,0 0,0 0,0z" fill="#3C3C3B" id="svg_781"/>
    </g>
    <g id="svg_782">
     <path d="m49.7,135.47c-0.06,1.07 -0.02,2.13 0.02,3.2c0.05,1.07 0.18,2.12 0.32,3.19c0.13,1.07 0.24,2.13 0.24,3.2c0,1.07 -0.1,2.13 -0.58,3.19c-0.1,0.24 -0.38,0.34 -0.61,0.24c-0.11,-0.05 -0.19,-0.14 -0.23,-0.24c-0.48,-1.06 -0.58,-2.12 -0.58,-3.19c0,-1.07 0.11,-2.13 0.24,-3.2c0.14,-1.07 0.27,-2.12 0.32,-3.19c0.04,-1.07 0.08,-2.13 0.02,-3.2c-0.02,-0.23 0.16,-0.43 0.39,-0.45c0.24,-0.01 0.44,0.17 0.45,0.4c0,0.02 0,0.03 0,0.05z" fill="#3C3C3B" id="svg_783"/>
    </g>
    <g id="svg_784">
     <path d="m55.4,147.47c0.53,2.02 0.39,4.06 0.41,6.03c0,1.98 -0.14,4.05 -0.75,5.98c-0.6,1.94 -1.5,3.75 -2.44,5.5l-2.86,5.24c-0.14,0.26 -0.47,0.36 -0.74,0.22c-0.11,-0.06 -0.19,-0.16 -0.24,-0.27l-0.01,-0.02c-1.38,-3.16 -3.22,-6.12 -4.72,-9.33c-1.5,-3.19 -2.68,-6.76 -2.51,-10.48c0.08,-1.85 0.46,-3.72 1.3,-5.44c0.4,-0.87 0.98,-1.64 1.63,-2.41c0.74,-0.68 1.62,-1.32 2.68,-1.55c1.05,-0.22 2.12,-0.09 3.05,0.26c0.94,0.34 1.71,0.94 2.4,1.57c1.36,1.3 2.31,2.92 2.81,4.69zm-0.83,0.23c-0.51,-1.57 -1.49,-3.01 -2.79,-3.98c-1.27,-1 -2.88,-1.48 -4.18,-1.05c-0.64,0.22 -1.21,0.65 -1.71,1.18c-0.46,0.56 -0.93,1.22 -1.26,1.93c-0.71,1.42 -1.08,3.02 -1.17,4.65c-0.15,3.28 0.68,6.59 2.03,9.74c1.31,3.17 2.97,6.26 4.3,9.54l-1,-0.08l3.01,-5.09c0.97,-1.72 1.87,-3.47 2.49,-5.3c0.63,-1.84 0.78,-3.78 0.77,-5.76c-0.02,-1.97 0.03,-3.97 -0.5,-5.79z" fill="#3C3C3B" id="svg_785"/>
    </g>
    <g id="svg_786">
     <g id="svg_787">
      <path d="m46.76,48.89c-0.08,-1.18 -0.25,-2.34 -0.42,-3.51c-0.19,-1.17 -0.44,-2.32 -0.72,-3.47l-0.88,-3.42c-0.3,-1.15 -0.58,-2.28 -0.77,-3.46c-0.02,-0.09 0.04,-0.17 0.13,-0.18c0.07,-0.02 0.14,0.02 0.17,0.08c0.53,1.08 0.91,2.21 1.2,3.37c0.29,1.16 0.52,2.32 0.71,3.5c0.35,2.35 0.66,4.71 0.9,7.07c0.01,0.08 -0.05,0.16 -0.14,0.17c-0.09,0.01 -0.16,-0.05 -0.17,-0.14c0,0 0,-0.01 0,-0.01z" fill="#3C3C3B" id="svg_788"/>
     </g>
     <g id="svg_789">
      <path d="m43.28,32.29c-0.54,-1.99 -1.29,-3.93 -2.22,-5.78c-0.46,-0.92 -0.94,-1.83 -1.42,-2.74c-0.48,-0.91 -0.96,-1.82 -1.34,-2.8c-0.03,-0.08 0.01,-0.17 0.09,-0.2c0.07,-0.03 0.14,-0.01 0.18,0.04c0.7,0.78 1.25,1.68 1.73,2.61c0.48,0.94 0.91,1.89 1.28,2.87c0.73,1.95 1.41,3.92 2,5.91c0.03,0.09 -0.02,0.18 -0.11,0.2c-0.08,0.03 -0.17,-0.02 -0.19,-0.1c0,-0.01 0,-0.01 0,-0.01z" fill="#3C3C3B" id="svg_790"/>
     </g>
     <g id="svg_791">
      <path d="m50.99,50.3c0.13,-1.84 0.29,-3.68 0.55,-5.5c0.23,-1.83 0.49,-3.66 0.84,-5.48c0.32,-1.81 0.71,-3.62 1.2,-5.41c0.5,-1.77 1.07,-3.55 1.88,-5.21c0.04,-0.08 0.13,-0.12 0.21,-0.08c0.07,0.04 0.11,0.11 0.09,0.19c-0.46,1.78 -0.99,3.53 -1.46,5.3c-0.48,1.77 -0.95,3.54 -1.37,5.33c-0.83,3.57 -1.45,7.22 -1.62,10.89c0,0.09 -0.08,0.15 -0.16,0.15c-0.09,0 -0.16,-0.07 -0.16,-0.16c0,0 0,-0.01 0,-0.01z" fill="#3C3C3B" id="svg_792"/>
     </g>
     <g id="svg_793">
      <path d="m56.12,26.63c0.34,-1.3 0.74,-2.58 1.21,-3.86c0.23,-0.63 0.51,-1.26 0.84,-1.85c0.33,-0.59 0.73,-1.16 1.27,-1.6c0.07,-0.06 0.17,-0.05 0.23,0.02c0.04,0.04 0.05,0.1 0.03,0.16c-0.23,0.64 -0.54,1.22 -0.88,1.79l-0.98,1.72c-0.64,1.15 -1.12,2.41 -1.41,3.7c-0.02,0.09 -0.11,0.14 -0.19,0.12c-0.09,-0.02 -0.14,-0.1 -0.12,-0.19c0,0 0,-0.01 0,-0.01z" fill="#3C3C3B" id="svg_794"/>
     </g>
     <g id="svg_795">
      <path d="m49.6,48.88c0,-4.61 0.41,-9.21 1.12,-13.77c0.36,-2.27 0.83,-4.54 1.42,-6.77c0.61,-2.22 1.32,-4.43 2.31,-6.52c0.04,-0.08 0.14,-0.11 0.22,-0.07c0.07,0.03 0.1,0.11 0.08,0.19c-0.63,2.2 -1.31,4.39 -1.89,6.6c-0.59,2.2 -1.13,4.43 -1.58,6.67c-0.9,4.5 -1.43,9.08 -1.37,13.67c0,0.09 -0.07,0.16 -0.15,0.16c-0.09,0 -0.16,-0.07 -0.17,-0.16c0.01,0 0.01,0 0.01,0z" fill="#3C3C3B" id="svg_796"/>
     </g>
     <g id="svg_797">
      <path d="m48.03,50.31c0.03,-4.39 -0.45,-8.77 -1.29,-13.06c-0.42,-2.14 -0.91,-4.28 -1.44,-6.4l-1.66,-6.35c-0.02,-0.08 0.03,-0.17 0.12,-0.19c0.07,-0.02 0.15,0.02 0.18,0.09c0.9,2.01 1.53,4.14 2.08,6.27c0.53,2.14 0.96,4.31 1.28,6.49c0.64,4.36 1.01,8.76 1.05,13.15c0,0.09 -0.07,0.16 -0.16,0.16c-0.09,0 -0.16,-0.07 -0.16,-0.16c0,0 0,0 0,0z" fill="#3C3C3B" id="svg_798"/>
     </g>
     <g id="svg_799">
      <path d="m43.2,23.05c-0.19,-0.76 -0.48,-1.5 -0.89,-2.17c-0.2,-0.34 -0.39,-0.68 -0.56,-1.04c-0.18,-0.34 -0.33,-0.7 -0.36,-1.14c-0.01,-0.09 0.06,-0.18 0.16,-0.19c0.04,0 0.08,0.01 0.11,0.04c0.36,0.25 0.58,0.59 0.75,0.97c0.18,0.36 0.31,0.74 0.42,1.14c0.2,0.78 0.43,1.55 0.67,2.31c0.02,0.08 -0.02,0.17 -0.11,0.2c-0.08,0.02 -0.17,-0.02 -0.2,-0.11c0,0 0,0 0,-0.01z" fill="#3C3C3B" id="svg_800"/>
     </g>
     <g id="svg_801">
      <path d="m48.97,36.43c0.18,-2.88 0.47,-5.75 0.97,-8.6c0.25,-1.42 0.56,-2.84 0.97,-4.23c0.41,-1.39 0.89,-2.77 1.57,-4.05c0.04,-0.08 0.14,-0.11 0.22,-0.07c0.06,0.04 0.09,0.11 0.08,0.18c-0.33,1.41 -0.76,2.77 -1.16,4.15c-0.4,1.37 -0.77,2.75 -1.12,4.14c-0.67,2.79 -1.11,5.64 -1.21,8.5c-0.01,0.09 -0.08,0.16 -0.17,0.15c-0.09,0 -0.15,-0.07 -0.15,-0.16c0,0 0,0 0,-0.01z" fill="#3C3C3B" id="svg_802"/>
     </g>
     <g id="svg_803">
      <path d="m47.73,30.88c-0.07,-1.7 -0.27,-3.39 -0.6,-5.07c-0.16,-0.84 -0.32,-1.67 -0.47,-2.51c-0.14,-0.84 -0.26,-1.67 -0.25,-2.55c0,-0.09 0.07,-0.16 0.16,-0.16c0.07,0 0.12,0.04 0.15,0.1c0.35,0.8 0.54,1.64 0.68,2.49c0.14,0.85 0.23,1.7 0.29,2.56l0.36,5.12c0.01,0.09 -0.06,0.17 -0.14,0.17c-0.09,0.01 -0.17,-0.06 -0.17,-0.14c-0.01,0 -0.01,-0.01 -0.01,-0.01z" fill="#3C3C3B" id="svg_804"/>
     </g>
    </g>
    <g id="svg_805">
     <g id="svg_806">
      <path d="m43.48,68.22c-0.92,-0.43 -1.9,-0.92 -2.55,-1.8c-0.31,-0.43 -0.56,-0.94 -0.61,-1.5c-0.06,-0.56 0.09,-1.15 0.38,-1.62c0.58,-1 1.64,-1.54 2.63,-1.87c0.99,-0.34 2.05,-0.53 3.1,-0.45c0.09,0.01 0.15,0.09 0.15,0.18c-0.01,0.07 -0.06,0.12 -0.12,0.14c-0.99,0.27 -1.94,0.52 -2.89,0.84c-0.94,0.31 -1.83,0.72 -2.39,1.48c-0.6,0.73 -0.55,1.81 0.02,2.62c0.56,0.8 1.47,1.32 2.41,1.7c0.08,0.04 0.12,0.13 0.08,0.21c-0.03,0.08 -0.12,0.12 -0.2,0.09c-0.01,0 -0.01,0 -0.01,-0.01z" fill="#3C3C3B" id="svg_807"/>
     </g>
     <g id="svg_808">
      <path d="m44.53,56.6c-0.36,-0.25 -0.73,-0.53 -1.03,-0.9c-0.3,-0.36 -0.46,-0.89 -0.34,-1.37c0.19,-1 1.13,-1.61 1.97,-1.89c0.88,-0.29 1.75,-0.46 2.66,-0.54c0.91,-0.06 1.82,0 2.69,0.28c0.08,0.03 0.13,0.12 0.1,0.2c-0.02,0.07 -0.08,0.11 -0.14,0.11c-0.89,0.08 -1.73,0.1 -2.6,0.16c-0.85,0.05 -1.71,0.16 -2.55,0.33c-0.81,0.17 -1.6,0.62 -1.81,1.42c-0.21,0.8 0.49,1.51 1.23,1.92c0.07,0.05 0.1,0.15 0.05,0.22s-0.14,0.1 -0.21,0.06c-0.01,0 -0.02,-0.01 -0.02,-0.01z" fill="#3C3C3B" id="svg_809"/>
     </g>
    </g>
    <g id="svg_810">
     <g id="svg_811">
      <path d="m91.33,15.51c-3.18,-0.1 -6.36,-0.13 -9.54,-0.19l-9.55,-0.04c-3.18,0 -6.36,-0.02 -9.54,-0.08c-3.18,-0.08 -6.36,-0.17 -9.54,-0.48l-0.01,0c-0.11,-0.02 -0.2,-0.12 -0.19,-0.24c0.01,-0.1 0.1,-0.18 0.2,-0.19c3.19,-0.18 6.37,-0.13 9.55,-0.08c3.18,0.07 6.37,0.18 9.55,0.31l9.54,0.36c3.18,0.07 6.36,0.18 9.54,0.21c0.12,0 0.21,0.09 0.21,0.21s-0.09,0.21 -0.21,0.21c0,0 0,0 0,0l-0.01,0z" fill="#3C3C3B" id="svg_812"/>
     </g>
     <g id="svg_813">
      <path d="m90.25,12.53c-2.08,-0.08 -4.16,-0.03 -6.24,0.07c-1.05,0.05 -2.08,0.1 -3.13,0.08c-1.04,-0.02 -2.07,-0.08 -3.11,-0.34c-0.12,-0.02 -0.19,-0.14 -0.16,-0.26c0.02,-0.08 0.08,-0.14 0.16,-0.16c1.05,-0.23 2.09,-0.26 3.13,-0.24c1.04,0.01 2.07,0.09 3.12,0.17c2.07,0.17 4.16,0.28 6.24,0.26c0.11,0 0.21,0.09 0.21,0.21c0,0.12 -0.09,0.21 -0.21,0.21c0,0 -0.01,0 -0.01,0z" fill="#3C3C3B" id="svg_814"/>
     </g>
     <g id="svg_815">
      <path d="m86.97,9.14c-1.89,-0.21 -3.79,-0.31 -5.69,-0.42c-1.9,-0.09 -3.79,-0.12 -5.7,-0.11l-5.7,0.01c-1.89,0 -3.79,-0.03 -5.7,-0.21c-0.12,-0.02 -0.2,-0.12 -0.19,-0.24c0.01,-0.1 0.09,-0.17 0.18,-0.19c1.9,-0.29 3.8,-0.36 5.72,-0.35c1.9,0.02 3.8,0.09 5.71,0.22l5.71,0.42l5.69,0.44c0.12,0.01 0.21,0.12 0.2,0.23c-0.01,0.12 -0.11,0.2 -0.23,0.2c0,0 0,0 0,0z" fill="#3C3C3B" id="svg_816"/>
     </g>
     <g id="svg_817">
      <path d="m82.81,6.05c-2.46,-0.26 -4.93,-0.33 -7.41,-0.29c-1.23,0.02 -2.47,0.05 -3.7,0.03c-1.23,-0.02 -2.47,-0.07 -3.7,-0.3c-0.11,-0.02 -0.19,-0.13 -0.17,-0.25c0.02,-0.09 0.09,-0.15 0.17,-0.17c1.24,-0.26 2.48,-0.3 3.72,-0.28c1.24,0.01 2.48,0.11 3.71,0.22c2.48,0.23 4.94,0.46 7.42,0.62c0.12,0 0.2,0.1 0.2,0.22c-0.01,0.12 -0.11,0.21 -0.23,0.2c0,0 0,0 -0.01,0z" fill="#3C3C3B" id="svg_818"/>
     </g>
     <g id="svg_819">
      <path d="m10.45,14.68c3.18,-0.16 6.36,-0.36 9.54,-0.48c3.18,-0.15 6.37,-0.29 9.55,-0.38c3.19,-0.09 6.37,-0.13 9.56,-0.08c3.19,0.06 6.37,0.18 9.54,0.56c0.12,0.02 0.2,0.12 0.19,0.24c-0.01,0.1 -0.1,0.18 -0.2,0.19c-3.19,0.11 -6.37,0.04 -9.55,0l-9.53,-0.14c-3.18,-0.02 -6.36,-0.02 -9.54,0.06c-3.18,0.11 -6.36,0.22 -9.53,0.46c-0.12,0.01 -0.22,-0.08 -0.23,-0.2c-0.01,-0.11 0.08,-0.22 0.2,-0.22c0,-0.01 0,-0.01 0,-0.01z" fill="#3C3C3B" id="svg_820"/>
     </g>
     <g id="svg_821">
      <path d="m10.45,10.82l8.13,-0.5c2.72,-0.17 5.42,-0.35 8.14,-0.48c2.72,-0.15 5.43,-0.25 8.15,-0.29c2.72,-0.01 5.43,0 8.15,0.27c0.12,0.01 0.21,0.12 0.19,0.23c-0.01,0.11 -0.09,0.19 -0.19,0.19c-2.72,0.23 -5.42,0.26 -8.14,0.3l-8.14,0.06c-2.72,0.03 -5.42,0.07 -8.14,0.17c-2.71,0.13 -5.42,0.24 -8.13,0.47c-0.11,0.01 -0.21,-0.08 -0.22,-0.2c-0.01,-0.11 0.07,-0.21 0.19,-0.22c0,0 0,0 0.01,0z" fill="#3C3C3B" id="svg_822"/>
     </g>
     <g id="svg_823">
      <path d="m15.7,6.37c2.02,0.05 4.05,-0.03 6.07,-0.18c1.01,-0.06 2.02,-0.13 3.03,-0.13c1.02,0 2.02,0.04 3.03,0.28c0.12,0.03 0.19,0.15 0.16,0.26c-0.02,0.08 -0.08,0.14 -0.16,0.16l0,0.01c-1.02,0.24 -2.02,0.29 -3.04,0.29c-1.01,0.01 -2.01,-0.05 -3.02,-0.11c-2.02,-0.14 -4.05,-0.21 -6.06,-0.15l-0.01,0c-0.12,0 -0.22,-0.09 -0.22,-0.21c0,-0.12 0.09,-0.22 0.21,-0.22c0,0 0.01,0 0.01,0z" fill="#3C3C3B" id="svg_824"/>
     </g>
     <g id="svg_825">
      <path d="m33.62,5.62c2.41,0.02 4.8,-0.04 7.2,-0.07l7.19,-0.21c2.41,-0.08 4.8,-0.14 7.2,-0.17c2.4,0 4.79,0 7.2,0.24c0.11,0.01 0.2,0.11 0.19,0.23c-0.01,0.1 -0.09,0.18 -0.19,0.19c-2.4,0.27 -4.79,0.3 -7.19,0.34c-2.41,0.01 -4.8,-0.02 -7.2,-0.06l-7.2,-0.11c-2.4,0.02 -4.79,-0.01 -7.19,0.04c-0.12,0.01 -0.22,-0.09 -0.22,-0.2c0,-0.12 0.09,-0.22 0.21,-0.22c0,0 0,0 0,0z" fill="#3C3C3B" id="svg_826"/>
     </g>
     <g id="svg_827">
      <path d="m49,9.41c1.53,0.09 3.07,0 4.6,-0.2c0.76,-0.09 1.52,-0.2 2.28,-0.25c0.76,-0.05 1.53,-0.07 2.31,0.09c0.12,0.02 0.2,0.14 0.17,0.26c-0.01,0.07 -0.06,0.13 -0.13,0.16c-0.73,0.32 -1.51,0.43 -2.28,0.48c-0.77,0.06 -1.55,0.04 -2.32,0.01c-1.55,-0.08 -3.1,-0.14 -4.64,-0.13c-0.12,0 -0.21,-0.1 -0.22,-0.21c0,-0.12 0.1,-0.22 0.21,-0.22c0.01,0 0.02,0.01 0.02,0.01z" fill="#3C3C3B" id="svg_828"/>
     </g>
    </g>
    <g id="svg_829">
     <g id="svg_830">
      <path d="m38.05,101.89c-0.77,-2.32 -1.62,-4.64 -2.32,-6.99c-0.72,-2.34 -1.39,-4.73 -1.8,-7.18c-0.39,-2.45 -0.67,-4.92 -0.33,-7.47c0.19,-1.26 0.62,-2.54 1.42,-3.59c0.78,-1.04 1.93,-1.87 3.23,-2.06c0.11,-0.02 0.22,0.06 0.24,0.18c0.01,0.1 -0.05,0.2 -0.14,0.23c-1.1,0.4 -1.99,1.21 -2.61,2.16c-0.63,0.96 -0.98,2.07 -1.16,3.23c-0.19,1.17 -0.2,2.38 -0.16,3.58c0.03,1.21 0.11,2.42 0.26,3.62c0.31,2.41 0.83,4.8 1.48,7.16c0.69,2.35 1.45,4.68 2.29,6.98c0.04,0.11 -0.02,0.23 -0.13,0.28s-0.23,-0.02 -0.27,-0.13c0,0 0,0 0,-0.01z" fill="#3C3C3B" id="svg_831"/>
     </g>
     <g id="svg_832">
      <path d="m38.37,95.36c-0.38,-1.3 -0.8,-2.59 -1.11,-3.9c-0.33,-1.31 -0.63,-2.64 -0.89,-3.98c-0.25,-1.33 -0.41,-2.69 -0.48,-4.06c-0.03,-0.68 -0.01,-1.4 0.17,-2.11c0.18,-0.7 0.54,-1.42 1.15,-1.85c0.1,-0.07 0.23,-0.05 0.3,0.04c0.06,0.08 0.06,0.17 0.01,0.25l0,0c-0.68,1.07 -0.66,2.33 -0.63,3.64c0.05,1.32 0.13,2.66 0.24,3.99c0.11,1.33 0.29,2.66 0.57,3.98c0.29,1.31 0.61,2.61 1.07,3.87c0.04,0.11 -0.01,0.23 -0.12,0.27c-0.11,0.04 -0.23,-0.02 -0.27,-0.13c-0.01,0 -0.01,0 -0.01,-0.01z" fill="#3C3C3B" id="svg_833"/>
     </g>
     <g id="svg_834">
      <path d="m58.06,101.04c0.96,-2.16 1.62,-4.46 2.11,-6.77c0.48,-2.32 0.73,-4.69 0.92,-7.06c0.09,-1.18 0.15,-2.36 0.2,-3.55c0.06,-1.19 0.11,-2.35 -0.01,-3.49c-0.11,-1.14 -0.37,-2.24 -0.94,-3.2c-0.54,-0.97 -1.36,-1.78 -2.41,-2.22c-0.11,-0.04 -0.16,-0.17 -0.12,-0.28c0.04,-0.09 0.14,-0.14 0.24,-0.13c1.26,0.23 2.33,1.12 3.04,2.16c0.7,1.08 1.07,2.34 1.18,3.57c0.18,2.49 -0.17,4.84 -0.42,7.23c-0.29,2.38 -0.68,4.74 -1.24,7.07c-0.51,2.34 -1.27,4.63 -2.16,6.85c-0.05,0.11 -0.17,0.16 -0.28,0.12c-0.11,-0.05 -0.16,-0.17 -0.12,-0.28c0.01,0 0.01,-0.01 0.01,-0.01z" fill="#3C3C3B" id="svg_835"/>
     </g>
     <g id="svg_836">
      <path d="m56.43,97.64c0.52,-1.41 0.91,-2.86 1.25,-4.32c0.32,-1.47 0.54,-2.95 0.68,-4.44c0.13,-1.48 0.22,-2.97 0.28,-4.46c0.05,-1.49 0.09,-2.97 0.25,-4.48c0.01,-0.12 0.12,-0.2 0.23,-0.19c0.1,0.01 0.17,0.08 0.19,0.17c0.32,1.49 0.39,3.02 0.32,4.54c-0.07,1.52 -0.25,3.04 -0.52,4.53c-0.28,1.49 -0.61,2.97 -1,4.43c-0.36,1.47 -0.83,2.91 -1.29,4.35c-0.03,0.12 -0.15,0.18 -0.26,0.14c-0.11,-0.03 -0.18,-0.15 -0.14,-0.27c0,0 0,0 0,0z" fill="#3C3C3B" id="svg_837"/>
     </g>
     <g id="svg_838">
      <path d="m43.48,73.84c1.79,-0.27 3.58,-0.46 5.41,-0.51c0.91,-0.01 1.83,0.02 2.74,0.18c0.9,0.14 1.79,0.39 2.6,0.89c0.1,0.06 0.13,0.19 0.07,0.3c-0.04,0.07 -0.12,0.1 -0.19,0.1c-0.92,-0.01 -1.78,-0.16 -2.65,-0.3c-0.87,-0.14 -1.73,-0.3 -2.61,-0.4c-1.75,-0.23 -3.56,-0.2 -5.29,0.16c-0.12,0.03 -0.23,-0.04 -0.25,-0.16c-0.03,-0.11 0.04,-0.23 0.16,-0.25c0,0 0,0 0.01,0z" fill="#3C3C3B" id="svg_839"/>
     </g>
    </g>
    <g id="svg_840">
     <g id="svg_841">
      <path d="m41.2,138.23c-0.89,-0.76 -1.03,-1.95 -1.08,-2.97l-0.03,-3.08c-0.04,-2.05 -0.09,-4.11 -0.17,-6.16c-0.07,-2.05 -0.11,-4.11 -0.12,-6.16c-0.01,-2.05 0.04,-4.11 0.27,-6.16c0.02,-0.12 0.12,-0.2 0.24,-0.19c0.1,0.02 0.17,0.1 0.18,0.19c0.25,2.05 0.3,4.11 0.3,6.16c-0.01,2.05 -0.05,4.11 -0.11,6.16c-0.07,2.05 -0.12,4.11 -0.15,6.16l0,3.07c0.01,0.99 0.19,2.05 0.94,2.66c0.09,0.07 0.1,0.2 0.03,0.3c-0.07,0.09 -0.2,0.1 -0.3,0.03c0,0 0,-0.01 0,-0.01z" fill="#3C3C3B" id="svg_842"/>
     </g>
     <g id="svg_843">
      <path d="m42.26,132.7c0.09,-1.57 0,-3.15 -0.18,-4.71c-0.08,-0.78 -0.17,-1.56 -0.2,-2.34c-0.04,-0.78 -0.04,-1.57 0.15,-2.36c0.03,-0.12 0.15,-0.19 0.26,-0.17c0.08,0.02 0.14,0.07 0.16,0.14c0.3,0.76 0.39,1.56 0.43,2.34c0.04,0.8 0,1.59 -0.04,2.38c-0.1,1.59 -0.17,3.16 -0.15,4.74c0,0.12 -0.1,0.21 -0.21,0.21c-0.12,0 -0.22,-0.09 -0.22,-0.21c0,0 0,-0.01 0,-0.01z" fill="#3C3C3B" id="svg_844"/>
     </g>
     <g id="svg_845">
      <path d="m54.89,130.78c0.4,-1.52 0.54,-3.1 0.62,-4.67c0.05,-1.57 -0.02,-3.15 -0.13,-4.73c-0.11,-1.58 -0.22,-3.16 -0.24,-4.75c-0.01,-1.6 0.09,-3.21 0.51,-4.78c0.03,-0.11 0.15,-0.18 0.26,-0.15c0.1,0.03 0.16,0.11 0.16,0.2c0.06,1.59 0.06,3.15 0.07,4.72c0,1.57 0.02,3.15 -0.01,4.74c-0.03,1.59 -0.06,3.19 -0.17,4.78c-0.09,1.59 -0.32,3.17 -0.66,4.74c-0.02,0.11 -0.13,0.18 -0.25,0.16c-0.11,-0.03 -0.18,-0.14 -0.16,-0.25c0,-0.01 0,-0.01 0,-0.01z" fill="#3C3C3B" id="svg_846"/>
     </g>
     <g id="svg_847">
      <path d="m53.55,128.37c0.02,-0.91 0,-1.81 -0.03,-2.72c-0.03,-0.91 -0.05,-1.8 -0.11,-2.7c-0.04,-0.91 -0.09,-1.8 -0.06,-2.7c0.01,-0.91 0.08,-1.8 0.34,-2.69c0.03,-0.12 0.15,-0.19 0.27,-0.15c0.08,0.02 0.13,0.08 0.15,0.15c0.22,0.91 0.25,1.81 0.23,2.71c-0.01,0.9 -0.09,1.79 -0.17,2.69c-0.09,0.9 -0.16,1.8 -0.21,2.7c-0.02,0.89 -0.03,1.78 0.01,2.68l0,0.02c0.01,0.12 -0.08,0.22 -0.2,0.22c-0.12,0.01 -0.22,-0.08 -0.22,-0.2c0,0 0,-0.01 0,-0.01z" fill="#3C3C3B" id="svg_848"/>
     </g>
    </g>
    <g id="svg_849">
     <path d="m52.33,151.04c-0.02,1.6 -0.45,3.13 -0.95,4.6c-0.49,1.48 -1.05,2.92 -1.55,4.39c-0.05,0.12 -0.18,0.19 -0.31,0.15c-0.09,-0.03 -0.15,-0.11 -0.16,-0.2l0,-0.01c-0.24,-1.78 -1.48,-3.33 -2.1,-5.15c-0.33,-0.9 -0.61,-1.81 -0.83,-2.76c-0.21,-0.94 -0.36,-1.91 -0.27,-2.93c0.08,-1.01 0.42,-2.02 1.07,-2.86c0.32,-0.41 0.72,-0.83 1.34,-1.02c0.29,-0.11 0.63,-0.1 0.95,-0.04c0.31,0.08 0.59,0.23 0.81,0.41c1.59,1.45 2.05,3.51 2.01,5.41zm-0.42,0c-0.02,-1.81 -0.83,-3.67 -2.15,-4.67c-0.31,-0.21 -0.59,-0.27 -0.89,-0.17c-0.29,0.1 -0.61,0.36 -0.87,0.68c-0.51,0.65 -0.82,1.47 -0.9,2.33c-0.17,1.74 0.28,3.6 0.84,5.35c0.29,0.88 0.66,1.71 1.06,2.58c0.38,0.86 0.76,1.77 0.85,2.77l-0.47,-0.06c0.56,-1.44 1.13,-2.89 1.66,-4.34c0.49,-1.46 0.88,-2.96 0.88,-4.48z" fill="#3C3C3B" id="svg_850"/>
    </g>
    <g id="svg_851">
     <g id="svg_852">
      <path d="m59.01,107.35c-1.45,-0.02 -2.91,0.02 -4.36,0.09c-1.45,0.05 -2.91,0.13 -4.36,-0.09c-0.06,-0.01 -0.1,-0.06 -0.09,-0.12c0.01,-0.05 0.04,-0.08 0.09,-0.09c1.45,-0.22 2.91,-0.13 4.36,-0.08c1.45,0.06 2.91,0.11 4.36,0.08c0.06,0 0.11,0.05 0.11,0.11c0,0.05 -0.05,0.1 -0.1,0.1c-0.01,0 -0.01,0 -0.01,0z" fill="#3C3C3B" id="svg_853"/>
     </g>
     <g id="svg_854">
      <path d="m38.36,106.85c1.54,0.02 3.08,-0.02 4.63,-0.08c1.53,-0.06 3.08,-0.14 4.62,0.08c0.06,0.01 0.1,0.06 0.09,0.12c-0.01,0.05 -0.05,0.08 -0.09,0.09c-1.54,0.22 -3.08,0.14 -4.62,0.09c-1.54,-0.07 -3.08,-0.11 -4.63,-0.09c-0.06,0 -0.1,-0.04 -0.1,-0.1c0,-0.06 0.04,-0.11 0.1,-0.11c0,0 0,0 0,0z" fill="#3C3C3B" id="svg_855"/>
     </g>
     <g id="svg_856">
      <path d="m36.97,106.04c0.78,0.02 1.57,-0.02 2.34,-0.08c0.78,-0.05 1.56,-0.14 2.34,0.08c0.06,0.02 0.09,0.08 0.08,0.14c-0.01,0.03 -0.04,0.06 -0.08,0.07c-0.78,0.22 -1.56,0.14 -2.34,0.09c-0.78,-0.07 -1.56,-0.11 -2.34,-0.09c-0.06,0 -0.11,-0.04 -0.11,-0.1c0,-0.06 0.05,-0.11 0.11,-0.11c0,0 0,0 0,0z" fill="#3C3C3B" id="svg_857"/>
     </g>
     <g id="svg_858">
      <path d="m60.48,106.4c-1.07,-0.03 -2.12,0.02 -3.19,0.08c-1.07,0.05 -2.12,0.14 -3.19,-0.08c-0.06,-0.02 -0.09,-0.07 -0.08,-0.13c0.01,-0.04 0.04,-0.08 0.08,-0.08c1.07,-0.23 2.12,-0.14 3.19,-0.09c1.07,0.07 2.12,0.11 3.19,0.09c0.06,-0.01 0.1,0.04 0.11,0.1c0,0.06 -0.05,0.11 -0.11,0.11c0,0 0,0 0,0z" fill="#3C3C3B" id="svg_859"/>
     </g>
    </g>
   </g>
  </g>
 </g>
</svg>