<?xml version="1.0"?>
<svg width="98" height="171" xmlns="http://www.w3.org/2000/svg" xmlns:svg="http://www.w3.org/2000/svg" enable-background="new 0 0 500 500" version="1.1" xml:space="preserve">
 <g class="layer">
  <title>Layer 1</title>
  <g id="BACKGROUND"/>
  <g id="OBJECTS">
   <g id="svg_763">
    <g id="svg_764">
     <path d="m36.79,65.8l-0.02,0.04c-0.24,0.4 -0.48,0.81 -0.69,1.23c-0.24,0.45 -0.37,0.77 -0.56,1.16c-0.35,0.74 -0.67,1.51 -0.98,2.27c-0.63,1.52 -1.18,3.08 -1.65,4.66c-0.96,3.16 -1.6,6.42 -1.93,9.72c-0.15,1.65 -0.23,3.3 -0.24,4.97c0.01,1.64 0.1,3.45 0.91,5.08c0.79,1.63 2.18,2.86 3.66,3.71c1.5,0.85 3.1,1.4 4.72,1.79l0.01,0l0.04,0.01c4.62,0.67 9.26,1.02 13.98,0.51c2.37,-0.33 4.66,-0.96 6.84,-2.04c1.08,-0.57 2.12,-1.27 2.97,-2.22c0.86,-0.93 1.49,-2.14 1.78,-3.36c0.29,-1.23 0.34,-2.45 0.34,-3.64c-0.02,-1.18 -0.05,-2.35 -0.13,-3.53c-0.17,-2.35 -0.49,-4.68 -0.97,-6.98c-0.95,-4.61 -2.55,-9.08 -4.7,-13.25l0,0c-0.11,-0.21 -0.33,-0.33 -0.55,-0.33l-22.82,0.22zm0.41,0.81l0.03,0l22.37,0.22l-0.55,-0.33c2.07,4.08 3.59,8.45 4.48,12.94c0.45,2.25 0.75,4.52 0.89,6.81c0.08,1.13 0.1,2.28 0.11,3.42c-0.01,1.15 -0.07,2.26 -0.32,3.28c-0.48,2.07 -2.08,3.61 -4.03,4.58c-1.95,0.98 -4.16,1.61 -6.34,1.92c-4.45,0.53 -9.08,0.2 -13.56,-0.44l0.05,0.01c-1.53,-0.36 -3.02,-0.87 -4.36,-1.63c-1.34,-0.74 -2.49,-1.77 -3.15,-3.09c-0.68,-1.3 -0.8,-2.88 -0.82,-4.48c-0.01,-1.61 0.04,-3.23 0.18,-4.83c0.29,-3.22 0.84,-6.42 1.72,-9.53c0.44,-1.56 0.93,-3.1 1.53,-4.61c0.29,-0.75 0.59,-1.5 0.92,-2.24l0.48,-1.06c0.13,-0.3 0.25,-0.61 0.37,-0.93z" fill="#3C3C3B" id="svg_765"/>
    </g>
    <g id="svg_766">
     <path d="m38.12,106.35c0.04,1.24 0.65,2.36 1.48,3.15c0.81,0.8 1.78,1.41 2.8,1.85c2.03,0.92 4.24,1.31 6.44,1.35c2.2,0.01 4.44,-0.27 6.53,-1.16c1.03,-0.45 2.05,-1.02 2.91,-1.84c0.86,-0.81 1.55,-2.01 1.61,-3.35c0.01,-1.35 -0.62,-2.61 -1.47,-3.49c-0.85,-0.89 -1.87,-1.54 -2.91,-2.04c-2.12,-0.98 -4.41,-1.35 -6.67,-1.39c-2.26,-0.01 -4.57,0.44 -6.61,1.52c-1.01,0.54 -1.98,1.22 -2.76,2.11c-0.79,0.87 -1.36,2.05 -1.35,3.28zm0.85,0c0.05,-0.95 0.54,-1.84 1.29,-2.49c0.74,-0.65 1.66,-1.1 2.6,-1.46c1.9,-0.68 3.95,-0.9 5.98,-0.95c2.03,0 4.09,0.31 5.92,1.09c0.91,0.37 1.78,0.88 2.45,1.52c0.68,0.65 1.1,1.45 1.16,2.29c0.02,0.84 -0.35,1.71 -1.02,2.42c-0.65,0.71 -1.52,1.29 -2.44,1.72c-1.86,0.87 -3.97,1.27 -6.06,1.32c-2.09,0.01 -4.23,-0.28 -6.15,-1.13c-0.94,-0.43 -1.85,-0.97 -2.56,-1.7c-0.7,-0.73 -1.15,-1.67 -1.16,-2.62z" fill="#3C3C3B" id="svg_767"/>
    </g>
    <g id="svg_768">
     <path d="m40.87,116.59c0.03,0.94 0.5,1.79 1.13,2.38c0.61,0.6 1.33,1.04 2.08,1.37c1.5,0.69 3.13,0.98 4.76,1.02c1.63,0.01 3.28,-0.18 4.84,-0.83c0.77,-0.32 1.54,-0.74 2.2,-1.37c0.66,-0.6 1.21,-1.52 1.26,-2.57c0.02,-1.05 -0.48,-2.05 -1.13,-2.72c-0.64,-0.69 -1.4,-1.19 -2.19,-1.56c-1.59,-0.76 -3.3,-1.04 -4.98,-1.06c-1.7,0 -3.42,0.34 -4.93,1.2c-0.75,0.42 -1.47,0.95 -2.04,1.63c-0.58,0.67 -1,1.57 -0.99,2.51zm0.85,0c0.05,-0.66 0.39,-1.28 0.93,-1.72c0.54,-0.44 1.21,-0.75 1.88,-0.98c1.38,-0.44 2.84,-0.58 4.3,-0.62c1.46,0.01 2.92,0.22 4.23,0.76c1.3,0.5 2.48,1.45 2.54,2.56c0.08,1.12 -1.08,2.29 -2.39,2.89c-1.34,0.64 -2.86,0.95 -4.38,0.99c-1.52,0.01 -3.07,-0.19 -4.46,-0.8c-0.69,-0.31 -1.35,-0.71 -1.85,-1.24c-0.5,-0.53 -0.8,-1.19 -0.8,-1.84z" fill="#3C3C3B" id="svg_769"/>
    </g>
    <g id="svg_770">
     <path d="m44.63,120.87c-0.32,5.8 -1.75,11.5 -3.92,16.85c-1.06,2.69 -2.3,5.29 -3.57,7.86c-1.29,2.56 -2.63,5.08 -3.87,7.74c-0.1,0.21 -0.01,0.48 0.2,0.58c0.17,0.08 0.37,0.04 0.5,-0.09c2.06,-2.15 3.64,-4.68 4.95,-7.33c1.33,-2.64 2.35,-5.43 3.21,-8.25c1.67,-5.66 2.79,-11.45 3.33,-17.31c0.02,-0.23 -0.15,-0.45 -0.38,-0.47c-0.23,-0.02 -0.44,0.15 -0.46,0.39c0,0.01 0,0.02 0,0.02z" fill="#3C3C3B" id="svg_771"/>
    </g>
    <g id="svg_772">
     <path d="m52.16,120.93c0.54,5.88 1.68,11.68 3.35,17.37c0.86,2.84 1.9,5.62 3.23,8.29c1.32,2.65 2.9,5.2 4.97,7.36c0.16,0.17 0.44,0.17 0.61,0.01c0.13,-0.13 0.16,-0.33 0.09,-0.5c-1.25,-2.68 -2.59,-5.2 -3.89,-7.78c-1.27,-2.58 -2.5,-5.19 -3.58,-7.88c-2.17,-5.37 -3.62,-11.11 -3.94,-16.92c-0.01,-0.23 -0.21,-0.42 -0.44,-0.41c-0.23,0.01 -0.41,0.21 -0.4,0.45c0,0.01 0,0.02 0,0.02z" fill="#3C3C3B" id="svg_773"/>
    </g>
    <g id="svg_774">
     <path d="m24.16,170.06c-1.18,-0.21 -2.36,-0.39 -3.54,-0.65l-1.84,-0.51l-0.92,-0.25c-0.3,-0.09 -0.59,-0.22 -0.89,-0.33l-1.78,-0.69c-0.59,-0.25 -1.15,-0.57 -1.72,-0.85l-0.84,-0.44c-0.28,-0.15 -0.54,-0.33 -0.8,-0.51c-0.53,-0.34 -1.09,-0.67 -1.6,-1.04c-2.05,-1.5 -3.85,-3.33 -5.34,-5.38c-1.48,-2.05 -2.67,-4.39 -3.32,-6.76l-0.6,0.73c15.95,0.48 31.91,0.95 47.87,1.06c7.99,0.06 15.96,0.03 23.95,-0.14c7.99,-0.17 15.96,-0.53 23.94,-1.03l-0.75,-0.8c-0.23,1.56 -0.72,3.19 -1.37,4.7c-0.29,0.78 -0.7,1.5 -1.08,2.23c-0.43,0.7 -0.83,1.43 -1.34,2.08c-1.94,2.65 -4.55,4.79 -7.54,6.15c-6.01,2.94 -12.98,2.11 -19.7,2.27l-40.59,0.16l-0.21,0zm0.4,0.94l40.39,0.16l5.08,0.01c1.7,-0.02 3.37,0.06 5.1,-0.07c3.45,-0.04 6.91,-0.81 10.09,-2.25c3.18,-1.43 6,-3.72 8.09,-6.55c0.54,-0.7 0.97,-1.47 1.44,-2.21c0.4,-0.79 0.83,-1.55 1.16,-2.37c0.68,-1.63 1.21,-3.28 1.49,-5.1c0.06,-0.37 -0.2,-0.73 -0.57,-0.79c-0.05,-0.01 -0.1,-0.01 -0.14,-0.01l-0.04,0.01c-7.95,0.49 -15.91,0.76 -23.88,0.96c-7.97,0.19 -15.93,0.26 -23.91,0.24c-15.94,-0.05 -31.9,-0.46 -47.84,-0.86l-0.03,0c-0.32,-0.01 -0.58,0.24 -0.59,0.57c0,0.05 0.01,0.11 0.02,0.16c0.73,2.66 2,5.02 3.58,7.16c1.59,2.14 3.5,4.02 5.65,5.56c0.54,0.39 1.12,0.71 1.67,1.06c0.28,0.17 0.55,0.36 0.84,0.52l0.88,0.45c0.6,0.28 1.18,0.61 1.79,0.85l1.84,0.7c0.31,0.1 0.61,0.23 0.93,0.33l0.94,0.24l1.91,0.51c1.29,0.26 2.59,0.44 3.89,0.66l0.24,0.04z" fill="#3C3C3B" id="svg_775"/>
    </g>
    <g id="svg_776">
     <path d="m32.4,79.13c-0.72,-1.71 -2.02,-3.13 -3.51,-4.16c-1.5,-1.03 -3.18,-1.71 -4.92,-2.15c-3.47,-0.81 -7.15,-0.7 -10.57,0.45c-1.7,0.58 -3.33,1.42 -4.77,2.53c-1.43,1.12 -2.67,2.51 -3.61,4.07c-1.88,3.14 -2.69,6.75 -2.89,10.29c-0.38,7.15 2,14.39 6.54,19.92c1.16,1.36 2.42,2.64 3.79,3.77c1.38,1.13 2.82,2.14 4.3,3.08c2.95,1.86 6.03,3.47 8.92,5.24c2.88,1.77 5.67,3.72 7.88,6.19c2.23,2.43 3.77,5.44 4.39,8.67c0.62,3.22 0.36,6.67 -1.12,9.51c-1.47,2.83 -4.24,5.01 -7.38,5.28c-3.17,0.28 -6.55,-0.62 -9.13,-2.51c-1.29,-0.95 -2.37,-2.2 -3.07,-3.61c-0.7,-1.41 -1.01,-3.03 -0.93,-4.61c0.09,-1.59 0.59,-3.14 1.54,-4.38c0.93,-1.24 2.32,-2.13 3.84,-2.52c1.52,-0.4 3.14,-0.29 4.59,0.35c1.44,0.63 2.69,1.73 3.47,3.12c0.17,0.3 0.55,0.42 0.85,0.24c0.3,-0.17 0.4,-0.55 0.24,-0.85c-0.88,-1.66 -2.32,-2.98 -4.02,-3.76c-1.69,-0.8 -3.68,-0.97 -5.49,-0.52c-1.82,0.44 -3.51,1.47 -4.7,2.96c-1.19,1.51 -1.83,3.37 -1.96,5.25c-0.11,1.87 0.24,3.77 1.06,5.46c0.84,1.69 2.09,3.13 3.57,4.24c2.96,2.19 6.65,3.21 10.33,2.91c1.85,-0.16 3.7,-0.87 5.19,-1.99c1.52,-1.09 2.74,-2.55 3.63,-4.21c1.74,-3.31 2.02,-7.17 1.36,-10.73c-0.65,-3.59 -2.38,-6.97 -4.8,-9.65c-2.4,-2.7 -5.31,-4.78 -8.3,-6.59c-2.98,-1.81 -6.05,-3.37 -8.93,-5.17c-2.88,-1.78 -5.55,-3.84 -7.69,-6.39c-4.28,-5.13 -6.58,-11.93 -6.26,-18.63c0.16,-3.33 0.91,-6.71 2.58,-9.53c0.83,-1.42 1.93,-2.64 3.19,-3.66c1.28,-1.01 2.75,-1.76 4.3,-2.32c3.09,-1.11 6.54,-1.3 9.77,-0.6c1.6,0.36 3.16,0.95 4.52,1.86c1.37,0.9 2.5,2.12 3.16,3.59c0.12,0.29 0.46,0.42 0.75,0.29c0.28,-0.13 0.41,-0.47 0.29,-0.76z" fill="#3C3C3B" id="svg_777"/>
    </g>
    <g id="svg_778">
     <path d="m40.24,65.77l-6.89,-0.34l0.55,0.64c0.02,-0.22 0.28,-0.53 0.6,-0.89c0.31,-0.33 0.63,-0.65 0.98,-0.94c0.7,-0.59 1.48,-1.07 2.3,-1.45l-0.29,0.07c3.61,0.05 7.2,0.05 10.8,0.08l5.41,-0.02l5.4,-0.04l-0.29,-0.06c0.81,0.37 1.59,0.86 2.28,1.44c0.35,0.29 0.68,0.61 0.98,0.95c0.32,0.35 0.58,0.66 0.58,0.86l0.59,-0.67l-7.47,0.34c-0.26,0.01 -0.46,0.23 -0.45,0.49c0.01,0.26 0.22,0.46 0.47,0.46l7.48,-0.06c0.33,0 0.6,-0.27 0.59,-0.61l0,-0.03l0,-0.03c-0.03,-0.39 -0.19,-0.72 -0.35,-0.97c-0.19,-0.26 -0.33,-0.43 -0.5,-0.63c-0.33,-0.4 -0.69,-0.76 -1.08,-1.09c-0.76,-0.69 -1.63,-1.27 -2.55,-1.72c-0.09,-0.04 -0.18,-0.06 -0.27,-0.06l-0.02,0l-5.41,-0.04l-5.4,-0.02c-3.61,0.03 -7.2,0.03 -10.8,0.08l-0.02,0c-0.1,0 -0.19,0.03 -0.27,0.07c-0.91,0.45 -1.77,1.02 -2.53,1.71c-0.38,0.33 -0.74,0.7 -1.08,1.09c-0.17,0.2 -0.31,0.36 -0.49,0.63c-0.17,0.25 -0.32,0.59 -0.35,0.95l0,0.03c-0.02,0.3 0.21,0.58 0.52,0.6l0.04,0l6.89,0.06c0.23,0 0.43,-0.19 0.43,-0.44c0,-0.22 -0.18,-0.42 -0.4,-0.44z" fill="#3C3C3B" id="svg_779"/>
    </g>
    <g id="svg_780">
     <path d="m58.35,61.66c-0.26,-3.18 -0.38,-6.36 -0.35,-9.56c0.01,-1.59 0.05,-3.18 0.12,-4.78c0.06,-1.59 0.14,-3.2 0.02,-4.83c-0.06,-0.81 -0.17,-1.63 -0.34,-2.43c-0.16,-0.8 -0.4,-1.64 -0.94,-2.38c-0.27,-0.36 -0.64,-0.69 -1.08,-0.89c-0.44,-0.2 -0.9,-0.26 -1.32,-0.3c-0.82,-0.04 -1.53,-0.11 -2.28,-0.29c-1.47,-0.35 -2.86,-1.04 -4.03,-1.99c-1.19,-0.91 -2.04,-2.22 -3.2,-3.44c-0.58,-0.6 -1.25,-1.19 -2.11,-1.57c-0.83,-0.37 -1.76,-0.54 -2.72,-0.4c-0.94,0.11 -1.97,0.74 -2.44,1.68c-0.48,0.93 -0.51,1.87 -0.56,2.66c-0.16,3.2 -0.24,6.41 -0.27,9.62c-0.04,6.41 0.29,12.84 1.17,19.2c0.03,0.2 0.22,0.34 0.42,0.31c0.19,-0.02 0.32,-0.19 0.32,-0.37c-0.04,-6.39 -0.18,-12.76 -0.17,-19.13c-0.01,-3.18 0.06,-6.37 0.16,-9.56c0.02,-0.79 0.06,-1.5 0.31,-2.01c0.24,-0.51 0.7,-0.83 1.32,-0.94c0.6,-0.11 1.31,-0.02 1.92,0.23c0.6,0.24 1.19,0.7 1.73,1.22c1.08,1.03 2.06,2.4 3.44,3.4c1.35,1 2.89,1.7 4.51,2.05c0.8,0.18 1.68,0.24 2.43,0.26c0.76,0.02 1.34,0.23 1.76,0.79c0.43,0.54 0.67,1.27 0.85,2.02c0.18,0.75 0.28,1.53 0.34,2.31c0.13,1.56 0.07,3.15 0.02,4.74c-0.06,1.6 -0.09,3.2 -0.09,4.81c0.02,3.2 0.12,6.4 0.33,9.61c0.01,0.2 0.19,0.36 0.39,0.35c0.21,-0.02 0.36,-0.19 0.35,-0.41c0,0 0,0 0,0z" fill="#3C3C3B" id="svg_781"/>
    </g>
    <g id="svg_782">
     <path d="m49.62,35.42c-0.06,-1.07 -0.02,-2.15 0.02,-3.22c0.05,-1.07 0.18,-2.14 0.32,-3.21c0.13,-1.07 0.24,-2.15 0.24,-3.22c0,-1.07 -0.1,-2.15 -0.58,-3.21c-0.1,-0.24 -0.38,-0.34 -0.61,-0.24c-0.11,0.05 -0.19,0.14 -0.23,0.24c-0.48,1.06 -0.58,2.14 -0.58,3.21c0,1.07 0.11,2.15 0.24,3.22c0.14,1.07 0.27,2.14 0.32,3.21c0.04,1.07 0.08,2.15 0.02,3.22c-0.02,0.23 0.16,0.44 0.39,0.46c0.24,0.01 0.44,-0.17 0.45,-0.41c0,-0.02 0,-0.03 0,-0.05z" fill="#3C3C3B" id="svg_783"/>
    </g>
    <g id="svg_784">
     <path d="m55.31,23.33c0.53,-2.04 0.39,-4.08 0.41,-6.07c0,-2 -0.14,-4.07 -0.75,-6.02c-0.6,-1.96 -1.5,-3.78 -2.43,-5.54l-2.85,-5.28c-0.14,-0.26 -0.47,-0.36 -0.74,-0.22c-0.11,0.06 -0.19,0.16 -0.24,0.27l-0.01,0.02c-1.38,3.18 -3.21,6.16 -4.71,9.39c-1.5,3.21 -2.67,6.81 -2.5,10.55c0.08,1.86 0.46,3.75 1.3,5.48c0.4,0.87 0.97,1.65 1.63,2.42c0.74,0.69 1.62,1.33 2.67,1.56c1.04,0.22 2.12,0.09 3.04,-0.26c0.93,-0.34 1.71,-0.94 2.39,-1.58c1.36,-1.31 2.31,-2.94 2.8,-4.72zm-0.82,-0.23c-0.51,1.58 -1.49,3.03 -2.78,4c-1.27,1 -2.87,1.49 -4.17,1.05c-0.64,-0.22 -1.21,-0.66 -1.71,-1.19c-0.46,-0.57 -0.92,-1.23 -1.26,-1.95c-0.71,-1.43 -1.08,-3.04 -1.17,-4.68c-0.15,-3.3 0.68,-6.64 2.03,-9.81c1.31,-3.19 2.96,-6.3 4.29,-9.61l-0.99,0.08l3,5.13c0.96,1.73 1.87,3.5 2.48,5.34c0.63,1.85 0.78,3.81 0.77,5.8c-0.02,1.99 0.03,3.99 -0.5,5.83z" fill="#3C3C3B" id="svg_785"/>
    </g>
    <g id="svg_786">
     <g id="svg_787">
      <path d="m46.69,122.59c-0.08,1.19 -0.25,2.36 -0.42,3.54c-0.19,1.18 -0.44,2.34 -0.72,3.5l-0.87,3.45c-0.3,1.16 -0.58,2.3 -0.77,3.49c-0.02,0.09 0.04,0.17 0.13,0.18c0.07,0.02 0.14,-0.02 0.17,-0.08c0.53,-1.08 0.9,-2.23 1.2,-3.39c0.29,-1.17 0.52,-2.34 0.71,-3.53c0.35,-2.37 0.66,-4.74 0.89,-7.12c0.01,-0.08 -0.05,-0.16 -0.14,-0.17c-0.09,-0.01 -0.16,0.05 -0.17,0.14c0,0 0,0.01 0,0.01z" fill="#3C3C3B" id="svg_788"/>
     </g>
     <g id="svg_789">
      <path d="m43.21,139.31c-0.54,2.01 -1.29,3.96 -2.22,5.82c-0.46,0.92 -0.93,1.84 -1.42,2.76c-0.48,0.91 -0.95,1.83 -1.34,2.82c-0.03,0.08 0.01,0.17 0.09,0.2c0.07,0.03 0.14,0.01 0.18,-0.04c0.7,-0.79 1.25,-1.69 1.73,-2.62c0.48,-0.94 0.9,-1.9 1.28,-2.89c0.73,-1.97 1.41,-3.95 2,-5.95c0.03,-0.09 -0.02,-0.18 -0.11,-0.2c-0.08,-0.03 -0.17,0.02 -0.19,0.1c0,0.01 0,0.01 0,0.01z" fill="#3C3C3B" id="svg_790"/>
     </g>
     <g id="svg_791">
      <path d="m50.9,121.18c0.13,1.85 0.29,3.71 0.55,5.54c0.23,1.84 0.49,3.69 0.83,5.52c0.32,1.82 0.71,3.65 1.2,5.45c0.5,1.78 1.06,3.58 1.88,5.25c0.04,0.08 0.13,0.12 0.21,0.08c0.07,-0.04 0.11,-0.11 0.09,-0.19c-0.46,-1.79 -0.98,-3.56 -1.46,-5.34c-0.48,-1.78 -0.94,-3.57 -1.37,-5.37c-0.82,-3.6 -1.45,-7.27 -1.62,-10.96c0,-0.09 -0.08,-0.15 -0.16,-0.15c-0.09,0 -0.16,0.07 -0.16,0.16c0,0 0,0.01 0,0.01z" fill="#3C3C3B" id="svg_792"/>
     </g>
     <g id="svg_793">
      <path d="m56.03,145.01c0.34,1.31 0.74,2.59 1.21,3.89c0.23,0.64 0.51,1.27 0.83,1.86c0.33,0.6 0.73,1.17 1.27,1.61c0.07,0.06 0.17,0.05 0.23,-0.02c0.04,-0.04 0.05,-0.1 0.03,-0.16c-0.23,-0.65 -0.54,-1.23 -0.87,-1.8l-0.97,-1.73c-0.64,-1.16 -1.12,-2.42 -1.41,-3.73c-0.02,-0.09 -0.11,-0.14 -0.19,-0.12c-0.09,0.02 -0.14,0.1 -0.12,0.19c0,0 0,0.01 0,0.01z" fill="#3C3C3B" id="svg_794"/>
     </g>
     <g id="svg_795">
      <path d="m49.52,122.6c0,4.64 0.41,9.27 1.12,13.86c0.36,2.29 0.82,4.57 1.42,6.82c0.61,2.24 1.32,4.46 2.31,6.57c0.04,0.08 0.14,0.11 0.22,0.07c0.07,-0.03 0.1,-0.11 0.08,-0.19c-0.63,-2.22 -1.31,-4.42 -1.89,-6.65c-0.59,-2.22 -1.13,-4.46 -1.58,-6.72c-0.89,-4.53 -1.43,-9.14 -1.37,-13.76c0,-0.09 -0.07,-0.16 -0.15,-0.16c-0.09,0 -0.16,0.07 -0.17,0.16c0.01,0 0.01,0 0.01,0z" fill="#3C3C3B" id="svg_796"/>
     </g>
     <g id="svg_797">
      <path d="m47.95,121.17c0.03,4.42 -0.45,8.83 -1.29,13.15c-0.42,2.16 -0.9,4.31 -1.44,6.44l-1.66,6.39c-0.02,0.08 0.03,0.17 0.12,0.19c0.07,0.02 0.15,-0.02 0.18,-0.09c0.89,-2.03 1.53,-4.16 2.08,-6.31c0.53,-2.16 0.95,-4.34 1.28,-6.54c0.64,-4.39 1,-8.82 1.04,-13.24c0,-0.09 -0.07,-0.16 -0.16,-0.16c-0.09,0 -0.16,0.07 -0.16,0.16c0,0 0,0 0,0z" fill="#3C3C3B" id="svg_798"/>
     </g>
     <g id="svg_799">
      <path d="m43.13,148.62c-0.19,0.77 -0.48,1.51 -0.88,2.19c-0.2,0.34 -0.39,0.69 -0.56,1.04c-0.18,0.34 -0.33,0.71 -0.36,1.15c-0.01,0.09 0.06,0.18 0.16,0.19c0.04,0 0.08,-0.01 0.11,-0.04c0.36,-0.25 0.58,-0.6 0.75,-0.97c0.18,-0.36 0.31,-0.75 0.42,-1.15c0.2,-0.79 0.43,-1.56 0.67,-2.33c0.02,-0.08 -0.02,-0.17 -0.11,-0.2c-0.08,-0.02 -0.17,0.02 -0.2,0.11c0,0 0,0 0,0.01z" fill="#3C3C3B" id="svg_800"/>
     </g>
     <g id="svg_801">
      <path d="m48.9,135.14c0.18,2.9 0.47,5.79 0.96,8.66c0.25,1.43 0.56,2.86 0.96,4.26c0.41,1.4 0.88,2.79 1.57,4.07c0.04,0.08 0.14,0.11 0.22,0.07c0.06,-0.04 0.09,-0.11 0.08,-0.18c-0.33,-1.42 -0.76,-2.79 -1.16,-4.17c-0.4,-1.38 -0.77,-2.77 -1.12,-4.16c-0.67,-2.81 -1.11,-5.67 -1.21,-8.56c-0.01,-0.09 -0.08,-0.16 -0.17,-0.15c-0.09,0 -0.15,0.07 -0.15,0.16c0,0 0,0 0,0.01z" fill="#3C3C3B" id="svg_802"/>
     </g>
     <g id="svg_803">
      <path d="m47.65,140.73c-0.07,1.71 -0.27,3.41 -0.6,5.11c-0.16,0.84 -0.32,1.68 -0.47,2.52c-0.14,0.84 -0.26,1.68 -0.25,2.56c0,0.09 0.07,0.16 0.16,0.16c0.07,0 0.12,-0.04 0.15,-0.1c0.35,-0.8 0.54,-1.65 0.68,-2.5c0.14,-0.85 0.23,-1.71 0.29,-2.57l0.36,-5.16c0.01,-0.09 -0.06,-0.17 -0.14,-0.17c-0.09,-0.01 -0.17,0.06 -0.17,0.14c-0.01,0 -0.01,0.01 -0.01,0.01z" fill="#3C3C3B" id="svg_804"/>
     </g>
    </g>
    <g id="svg_805">
     <g id="svg_806">
      <path d="m43.41,103.13c-0.91,0.44 -1.9,0.92 -2.54,1.81c-0.31,0.44 -0.56,0.94 -0.61,1.51c-0.06,0.57 0.09,1.16 0.38,1.63c0.58,1 1.64,1.55 2.62,1.88c0.98,0.34 2.05,0.54 3.09,0.46c0.09,-0.01 0.15,-0.09 0.15,-0.18c-0.01,-0.07 -0.06,-0.12 -0.12,-0.14c-0.98,-0.27 -1.94,-0.53 -2.88,-0.84c-0.93,-0.31 -1.83,-0.73 -2.38,-1.49c-0.6,-0.74 -0.55,-1.82 0.02,-2.63c0.56,-0.8 1.47,-1.33 2.4,-1.71c0.08,-0.04 0.12,-0.13 0.08,-0.21c-0.03,-0.08 -0.12,-0.12 -0.2,-0.09c-0.01,0 -0.01,0 -0.01,0.01z" fill="#3C3C3B" id="svg_807"/>
     </g>
     <g id="svg_808">
      <path d="m44.45,114.83c-0.36,0.25 -0.73,0.54 -1.02,0.9c-0.3,0.36 -0.46,0.89 -0.34,1.38c0.19,1 1.13,1.62 1.97,1.9c0.87,0.29 1.75,0.47 2.65,0.55c0.9,0.06 1.82,0 2.68,-0.28c0.08,-0.03 0.13,-0.12 0.1,-0.2c-0.02,-0.07 -0.08,-0.11 -0.14,-0.11c-0.88,-0.08 -1.73,-0.1 -2.59,-0.16c-0.84,-0.05 -1.71,-0.16 -2.54,-0.33c-0.8,-0.17 -1.6,-0.63 -1.81,-1.43c-0.21,-0.8 0.49,-1.52 1.23,-1.94c0.07,-0.05 0.1,-0.15 0.05,-0.22s-0.14,-0.1 -0.21,-0.06c-0.01,0 -0.02,0.01 -0.02,0.01z" fill="#3C3C3B" id="svg_809"/>
     </g>
    </g>
    <g id="svg_810">
     <g id="svg_811">
      <path d="m91.18,156.2c-3.17,0.1 -6.35,0.13 -9.52,0.19l-9.53,0.04c-3.17,0 -6.35,0.02 -9.52,0.08c-3.17,0.08 -6.35,0.17 -9.52,0.49l-0.01,0c-0.11,0.02 -0.2,0.12 -0.19,0.24c0.01,0.1 0.1,0.18 0.2,0.19c3.18,0.18 6.36,0.13 9.53,0.08c3.17,-0.07 6.36,-0.18 9.53,-0.31l9.52,-0.36c3.17,-0.07 6.35,-0.18 9.52,-0.21c0.12,0 0.21,-0.09 0.21,-0.21s-0.09,-0.21 -0.21,-0.21c0,0 0,0 0,0l-0.01,0z" fill="#3C3C3B" id="svg_812"/>
     </g>
     <g id="svg_813">
      <path d="m90.1,159.2c-2.08,0.08 -4.15,0.03 -6.23,-0.07c-1.04,-0.05 -2.08,-0.1 -3.12,-0.08c-1.03,0.02 -2.07,0.08 -3.1,0.34c-0.12,0.02 -0.19,0.14 -0.16,0.26c0.02,0.08 0.08,0.14 0.16,0.16c1.04,0.23 2.09,0.26 3.12,0.24c1.03,-0.01 2.07,-0.09 3.11,-0.17c2.07,-0.17 4.15,-0.28 6.23,-0.26c0.11,0 0.21,-0.09 0.21,-0.21c0,-0.12 -0.09,-0.21 -0.21,-0.21c0,0 -0.01,0 -0.01,0z" fill="#3C3C3B" id="svg_814"/>
     </g>
     <g id="svg_815">
      <path d="m86.83,162.62c-1.89,0.21 -3.79,0.31 -5.68,0.43c-1.9,0.09 -3.79,0.12 -5.69,0.11l-5.69,-0.01c-1.89,0 -3.79,0.03 -5.69,0.21c-0.12,0.02 -0.2,0.12 -0.19,0.24c0.01,0.1 0.09,0.17 0.18,0.19c1.9,0.29 3.8,0.36 5.71,0.35c1.9,-0.02 3.8,-0.09 5.7,-0.22l5.7,-0.43l5.68,-0.45c0.12,-0.01 0.21,-0.12 0.2,-0.23c-0.01,-0.12 -0.11,-0.2 -0.23,-0.2c0,0 0,0 0,0z" fill="#3C3C3B" id="svg_816"/>
     </g>
     <g id="svg_817">
      <path d="m82.67,165.73c-2.45,0.26 -4.92,0.33 -7.39,0.29c-1.23,-0.02 -2.46,-0.05 -3.7,-0.03c-1.23,0.02 -2.46,0.07 -3.7,0.3c-0.11,0.02 -0.19,0.13 -0.17,0.25c0.02,0.09 0.09,0.15 0.17,0.17c1.24,0.26 2.47,0.3 3.72,0.28c1.24,-0.01 2.47,-0.11 3.71,-0.22c2.47,-0.23 4.93,-0.47 7.4,-0.63c0.12,0 0.2,-0.1 0.2,-0.22c-0.01,-0.12 -0.11,-0.21 -0.23,-0.2c0,0 0,0 -0.01,0z" fill="#3C3C3B" id="svg_818"/>
     </g>
     <g id="svg_819">
      <path d="m10.44,157.04c3.17,0.16 6.35,0.36 9.52,0.49c3.17,0.15 6.36,0.29 9.53,0.39c3.18,0.09 6.36,0.13 9.54,0.08c3.18,-0.06 6.36,-0.18 9.52,-0.57c0.12,-0.02 0.2,-0.12 0.19,-0.24c-0.01,-0.1 -0.1,-0.18 -0.2,-0.19c-3.18,-0.11 -6.36,-0.04 -9.53,0l-9.51,0.14c-3.17,0.02 -6.35,0.02 -9.52,-0.06c-3.17,-0.11 -6.35,-0.22 -9.51,-0.47c-0.12,-0.01 -0.22,0.08 -0.23,0.2c-0.01,0.11 0.08,0.22 0.2,0.22c0,0.01 0,0.01 0,0.01z" fill="#3C3C3B" id="svg_820"/>
     </g>
     <g id="svg_821">
      <path d="m10.44,160.93l8.12,0.51c2.71,0.17 5.42,0.35 8.13,0.49c2.71,0.15 5.43,0.25 8.14,0.29c2.71,0.01 5.43,0 8.14,-0.27c0.12,-0.01 0.21,-0.12 0.19,-0.23c-0.01,-0.11 -0.09,-0.19 -0.19,-0.19c-2.71,-0.23 -5.42,-0.26 -8.13,-0.3l-8.13,-0.06c-2.71,-0.03 -5.42,-0.07 -8.13,-0.17c-2.7,-0.13 -5.42,-0.24 -8.12,-0.48c-0.11,-0.01 -0.21,0.08 -0.22,0.2c-0.01,0.11 0.07,0.21 0.19,0.22c0,0 0,0 0.01,0z" fill="#3C3C3B" id="svg_822"/>
     </g>
     <g id="svg_823">
      <path d="m15.68,165.41c2.02,-0.05 4.04,0.03 6.06,0.18c1,0.06 2.02,0.13 3.02,0.13c1.01,0 2.02,-0.04 3.02,-0.28c0.12,-0.03 0.19,-0.15 0.16,-0.26c-0.02,-0.08 -0.08,-0.14 -0.16,-0.16l0,-0.01c-1.01,-0.24 -2.02,-0.29 -3.03,-0.29c-1,-0.01 -2.01,0.05 -3.01,0.11c-2.02,0.14 -4.04,0.21 -6.05,0.15l-0.01,0c-0.12,0 -0.22,0.09 -0.22,0.21c0,0.12 0.09,0.22 0.21,0.22c0,0 0.01,0 0.01,0z" fill="#3C3C3B" id="svg_824"/>
     </g>
     <g id="svg_825">
      <path d="m33.56,166.17c2.4,-0.02 4.79,0.04 7.18,0.07l7.17,0.21c2.4,0.08 4.79,0.14 7.18,0.17c2.39,0 4.78,0 7.18,-0.24c0.11,-0.01 0.2,-0.11 0.19,-0.23c-0.01,-0.1 -0.09,-0.18 -0.19,-0.19c-2.39,-0.27 -4.78,-0.3 -7.17,-0.34c-2.4,-0.01 -4.79,0.02 -7.18,0.06l-7.18,0.11c-2.39,-0.02 -4.78,0.01 -7.17,-0.04c-0.12,-0.01 -0.22,0.09 -0.22,0.2c0,0.12 0.09,0.22 0.21,0.22c0,0 0,0 0,0z" fill="#3C3C3B" id="svg_826"/>
     </g>
     <g id="svg_827">
      <path d="m48.93,162.35c1.53,-0.09 3.06,0 4.59,0.2c0.76,0.09 1.52,0.2 2.28,0.25c0.76,0.05 1.53,0.07 2.31,-0.09c0.12,-0.02 0.2,-0.14 0.17,-0.26c-0.01,-0.07 -0.06,-0.13 -0.13,-0.16c-0.73,-0.32 -1.51,-0.44 -2.28,-0.49c-0.77,-0.06 -1.55,-0.04 -2.32,-0.01c-1.55,0.08 -3.09,0.14 -4.63,0.13c-0.12,0 -0.21,0.1 -0.22,0.21c0,0.12 0.1,0.22 0.21,0.22c0.01,0 0.02,-0.01 0.02,-0.01z" fill="#3C3C3B" id="svg_828"/>
     </g>
    </g>
    <g id="svg_829">
     <g id="svg_830">
      <path d="m37.98,69.24c-0.77,2.34 -1.62,4.67 -2.32,7.04c-0.72,2.36 -1.39,4.76 -1.8,7.22c-0.39,2.46 -0.67,4.95 -0.33,7.52c0.19,1.27 0.62,2.55 1.42,3.62c0.78,1.04 1.93,1.88 3.23,2.08c0.11,0.02 0.22,-0.06 0.24,-0.18c0.01,-0.1 -0.05,-0.2 -0.14,-0.23c-1.1,-0.41 -1.99,-1.22 -2.6,-2.18c-0.63,-0.96 -0.97,-2.09 -1.16,-3.25c-0.19,-1.18 -0.2,-2.39 -0.16,-3.61c0.03,-1.22 0.11,-2.43 0.26,-3.65c0.31,-2.42 0.82,-4.83 1.48,-7.2c0.69,-2.37 1.45,-4.71 2.29,-7.03c0.04,-0.11 -0.02,-0.23 -0.13,-0.28s-0.23,0.02 -0.27,0.13c0,0 0,0 0,0.01z" fill="#3C3C3B" id="svg_831"/>
     </g>
     <g id="svg_832">
      <path d="m38.31,75.8c-0.38,1.31 -0.79,2.6 -1.11,3.93c-0.33,1.32 -0.63,2.65 -0.88,4c-0.25,1.34 -0.41,2.71 -0.48,4.08c-0.03,0.69 -0.01,1.41 0.17,2.13c0.18,0.71 0.54,1.43 1.15,1.86c0.1,0.07 0.23,0.05 0.3,-0.04c0.06,-0.08 0.06,-0.17 0.01,-0.25l0,0c-0.68,-1.07 -0.66,-2.35 -0.63,-3.67c0.05,-1.33 0.13,-2.68 0.24,-4.01c0.11,-1.34 0.29,-2.68 0.57,-4c0.29,-1.32 0.61,-2.62 1.06,-3.9c0.04,-0.11 -0.01,-0.23 -0.12,-0.27c-0.11,-0.04 -0.23,0.02 -0.27,0.13c-0.01,0 -0.01,0 -0.01,0.01z" fill="#3C3C3B" id="svg_833"/>
     </g>
     <g id="svg_834">
      <path d="m57.97,70.09c0.95,2.18 1.62,4.49 2.11,6.82c0.48,2.34 0.73,4.72 0.91,7.11c0.09,1.19 0.15,2.38 0.2,3.58c0.06,1.2 0.11,2.37 -0.01,3.52c-0.11,1.15 -0.37,2.26 -0.93,3.22c-0.54,0.97 -1.36,1.79 -2.4,2.24c-0.11,0.04 -0.16,0.17 -0.12,0.28c0.04,0.09 0.14,0.14 0.24,0.13c1.26,-0.23 2.33,-1.12 3.03,-2.18c0.7,-1.08 1.06,-2.36 1.18,-3.6c0.18,-2.5 -0.17,-4.87 -0.42,-7.28c-0.29,-2.39 -0.68,-4.77 -1.24,-7.12c-0.51,-2.36 -1.27,-4.66 -2.16,-6.9c-0.05,-0.11 -0.17,-0.16 -0.28,-0.12c-0.11,0.05 -0.16,0.17 -0.12,0.28c0.01,0 0.01,0.01 0.01,0.01z" fill="#3C3C3B" id="svg_835"/>
     </g>
     <g id="svg_836">
      <path d="m56.34,73.51c0.52,1.42 0.9,2.88 1.25,4.35c0.32,1.48 0.54,2.97 0.68,4.47c0.13,1.49 0.22,2.99 0.28,4.49c0.05,1.5 0.09,2.99 0.25,4.51c0.01,0.12 0.12,0.2 0.23,0.19c0.1,-0.01 0.17,-0.08 0.19,-0.17c0.32,-1.5 0.39,-3.04 0.32,-4.57c-0.07,-1.53 -0.25,-3.06 -0.52,-4.56c-0.28,-1.5 -0.61,-2.99 -0.99,-4.46c-0.36,-1.48 -0.82,-2.93 -1.29,-4.38c-0.03,-0.12 -0.15,-0.18 -0.26,-0.14c-0.11,0.03 -0.18,0.15 -0.14,0.27c0,0 0,0 0,0z" fill="#3C3C3B" id="svg_837"/>
     </g>
     <g id="svg_838">
      <path d="m43.41,97.48c1.79,0.27 3.58,0.47 5.41,0.52c0.9,0.01 1.83,-0.02 2.73,-0.18c0.89,-0.14 1.79,-0.4 2.59,-0.89c0.1,-0.06 0.13,-0.19 0.07,-0.3c-0.04,-0.07 -0.12,-0.1 -0.19,-0.1c-0.91,0.01 -1.78,0.16 -2.64,0.3c-0.86,0.14 -1.73,0.3 -2.6,0.41c-1.75,0.23 -3.56,0.2 -5.28,-0.16c-0.12,-0.03 -0.23,0.04 -0.25,0.16c-0.03,0.11 0.04,0.23 0.16,0.25c0,0 0,0 0.01,0z" fill="#3C3C3B" id="svg_839"/>
     </g>
    </g>
    <g id="svg_840">
     <g id="svg_841">
      <path d="m41.13,32.65c-0.88,0.77 -1.02,1.97 -1.08,2.99l-0.03,3.1c-0.04,2.07 -0.09,4.13 -0.17,6.2c-0.07,2.07 -0.11,4.13 -0.12,6.2c-0.01,2.07 0.04,4.13 0.27,6.2c0.02,0.12 0.12,0.2 0.24,0.19c0.1,-0.02 0.17,-0.1 0.18,-0.19c0.25,-2.07 0.3,-4.13 0.3,-6.2c-0.01,-2.07 -0.05,-4.13 -0.11,-6.2c-0.07,-2.07 -0.12,-4.13 -0.15,-6.2l0,-3.09c0.01,-0.99 0.19,-2.07 0.93,-2.68c0.09,-0.07 0.1,-0.2 0.03,-0.3c-0.07,-0.09 -0.2,-0.1 -0.3,-0.03c0,0 0,0.01 0,0.01z" fill="#3C3C3B" id="svg_842"/>
     </g>
     <g id="svg_843">
      <path d="m42.19,38.21c0.09,1.58 0,3.17 -0.18,4.74c-0.08,0.79 -0.17,1.57 -0.2,2.36c-0.04,0.79 -0.04,1.58 0.15,2.38c0.03,0.12 0.15,0.19 0.26,0.17c0.08,-0.02 0.14,-0.07 0.16,-0.14c0.3,-0.77 0.39,-1.57 0.43,-2.36c0.04,-0.8 0,-1.6 -0.04,-2.39c-0.1,-1.6 -0.17,-3.18 -0.15,-4.77c0,-0.12 -0.1,-0.21 -0.21,-0.21c-0.12,0 -0.22,0.09 -0.22,0.21c0,0 0,0.01 0,0.01z" fill="#3C3C3B" id="svg_844"/>
     </g>
     <g id="svg_845">
      <path d="m54.8,40.14c0.4,1.53 0.54,3.12 0.62,4.7c0.05,1.58 -0.02,3.17 -0.13,4.76c-0.11,1.59 -0.22,3.18 -0.24,4.78c-0.01,1.61 0.09,3.23 0.51,4.81c0.03,0.11 0.15,0.18 0.26,0.15c0.1,-0.03 0.16,-0.11 0.16,-0.2c0.06,-1.6 0.06,-3.17 0.07,-4.75c0,-1.58 0.02,-3.17 -0.01,-4.77c-0.03,-1.6 -0.06,-3.21 -0.17,-4.81c-0.09,-1.6 -0.32,-3.19 -0.66,-4.77c-0.02,-0.11 -0.13,-0.18 -0.25,-0.16c-0.11,0.03 -0.18,0.14 -0.16,0.25c0,0.01 0,0.01 0,0.01z" fill="#3C3C3B" id="svg_846"/>
     </g>
     <g id="svg_847">
      <path d="m53.47,42.57c0.02,0.91 0,1.82 -0.03,2.74c-0.03,0.91 -0.05,1.81 -0.11,2.72c-0.04,0.91 -0.09,1.81 -0.06,2.72c0.01,0.91 0.08,1.81 0.34,2.71c0.03,0.12 0.15,0.19 0.27,0.15c0.08,-0.02 0.13,-0.08 0.15,-0.15c0.22,-0.91 0.25,-1.82 0.23,-2.73c-0.01,-0.9 -0.09,-1.8 -0.17,-2.71c-0.09,-0.9 -0.16,-1.81 -0.21,-2.72c-0.02,-0.89 -0.03,-1.79 0.01,-2.7l0,-0.02c0.01,-0.12 -0.08,-0.22 -0.2,-0.22c-0.12,-0.01 -0.22,0.08 -0.22,0.2c0,0 0,0.01 0,0.01z" fill="#3C3C3B" id="svg_848"/>
     </g>
    </g>
    <g id="svg_849">
     <path d="m52.24,19.75c-0.02,-1.61 -0.45,-3.15 -0.94,-4.63c-0.49,-1.49 -1.04,-2.94 -1.55,-4.42c-0.05,-0.12 -0.18,-0.19 -0.31,-0.15c-0.09,0.03 -0.15,0.11 -0.16,0.2l0,0.01c-0.24,1.79 -1.48,3.35 -2.1,5.19c-0.33,0.9 -0.61,1.82 -0.82,2.78c-0.21,0.94 -0.36,1.93 -0.27,2.95c0.08,1.01 0.42,2.04 1.06,2.88c0.32,0.42 0.72,0.83 1.34,1.02c0.29,0.11 0.63,0.1 0.94,0.04c0.31,-0.08 0.59,-0.23 0.8,-0.42c1.59,-1.46 2.05,-3.54 2.01,-5.45zm-0.42,0c-0.02,1.82 -0.82,3.7 -2.15,4.7c-0.31,0.21 -0.59,0.27 -0.88,0.17c-0.29,-0.1 -0.61,-0.36 -0.86,-0.69c-0.51,-0.66 -0.81,-1.48 -0.89,-2.35c-0.17,-1.75 0.28,-3.63 0.83,-5.39c0.29,-0.88 0.66,-1.72 1.05,-2.59c0.38,-0.86 0.76,-1.78 0.84,-2.79l-0.47,0.06c0.56,1.45 1.13,2.91 1.66,4.37c0.49,1.47 0.87,2.98 0.87,4.51z" fill="#3C3C3B" id="svg_850"/>
    </g>
    <g id="svg_851">
     <g id="svg_852">
      <path d="m58.91,63.73c-1.45,0.02 -2.9,-0.02 -4.35,-0.09c-1.45,-0.05 -2.9,-0.13 -4.35,0.09c-0.06,0.01 -0.1,0.06 -0.09,0.12c0.01,0.05 0.04,0.08 0.09,0.09c1.45,0.22 2.9,0.13 4.35,0.08c1.45,-0.06 2.9,-0.11 4.35,-0.08c0.06,0 0.11,-0.05 0.11,-0.11c0,-0.05 -0.05,-0.1 -0.1,-0.1c-0.01,0 -0.01,0 -0.01,0z" fill="#3C3C3B" id="svg_853"/>
     </g>
     <g id="svg_854">
      <path d="m38.3,64.24c1.54,-0.02 3.07,0.02 4.62,0.08c1.53,0.06 3.07,0.14 4.61,-0.08c0.06,-0.01 0.1,-0.06 0.09,-0.12c-0.01,-0.05 -0.05,-0.08 -0.09,-0.09c-1.54,-0.22 -3.07,-0.14 -4.61,-0.09c-1.54,0.07 -3.07,0.11 -4.62,0.09c-0.06,0 -0.1,0.04 -0.1,0.1c0,0.06 0.04,0.11 0.1,0.11c0,0 0,0 0,0z" fill="#3C3C3B" id="svg_855"/>
     </g>
     <g id="svg_856">
      <path d="m36.91,65.05c0.78,-0.02 1.57,0.02 2.34,0.08c0.78,0.05 1.56,0.14 2.34,-0.08c0.06,-0.02 0.09,-0.08 0.08,-0.14c-0.01,-0.03 -0.04,-0.06 -0.08,-0.07c-0.78,-0.22 -1.56,-0.14 -2.34,-0.09c-0.78,0.07 -1.56,0.11 -2.34,0.09c-0.06,0 -0.11,0.04 -0.11,0.1c0,0.06 0.05,0.11 0.11,0.11c0,0 0,0 0,0z" fill="#3C3C3B" id="svg_857"/>
     </g>
     <g id="svg_858">
      <path d="m60.38,64.69c-1.06,0.03 -2.12,-0.02 -3.18,-0.08c-1.06,-0.05 -2.12,-0.14 -3.18,0.08c-0.06,0.02 -0.09,0.07 -0.08,0.13c0.01,0.04 0.04,0.08 0.08,0.08c1.06,0.23 2.12,0.14 3.18,0.09c1.06,-0.07 2.12,-0.11 3.18,-0.09c0.06,0.01 0.1,-0.04 0.11,-0.1c0,-0.06 -0.05,-0.11 -0.11,-0.11c0,0 0,0 0,0z" fill="#3C3C3B" id="svg_859"/>
     </g>
    </g>
   </g>
  </g>
 </g>
</svg>